<svg 
 xmlns="http://www.w3.org/2000/svg"
 xmlns:xlink="http://www.w3.org/1999/xlink"
 width="53px" height="53px">
<path fill-rule="evenodd"  fill="rgb(205, 3, 3)"
 d="M52.263,26.508 L27.478,26.508 L48.942,14.115 L48.582,13.490 L27.117,25.883 L39.510,4.418 L38.885,4.058 L26.492,25.522 L26.492,0.737 L25.771,0.737 L25.771,25.522 L13.378,4.058 L12.754,4.418 L25.146,25.883 L3.682,13.490 L3.321,14.115 L24.785,26.508 L0.000,26.508 L0.000,27.229 L24.785,27.229 L3.321,39.621 L3.682,40.246 L25.146,27.854 L12.754,49.318 L13.378,49.679 L25.771,28.215 L25.771,52.999 L26.492,52.999 L26.492,28.215 L38.885,49.679 L39.510,49.318 L27.117,27.854 L48.582,40.246 L48.942,39.621 L27.478,27.229 L52.263,27.229 L52.263,26.508 Z"/>
</svg>