<svg 
 xmlns="http://www.w3.org/2000/svg"
 xmlns:xlink="http://www.w3.org/1999/xlink"
 width="455px" height="453px">
<path fill-rule="evenodd"  fill="rgb(205, 3, 3)"
 d="M441.839,292.702 C427.356,330.843 398.567,363.021 361.846,380.957 C365.187,368.703 368.780,356.541 368.777,343.678 C421.592,305.093 439.537,226.676 413.345,167.481 C395.600,127.378 353.380,99.623 310.727,92.475 C306.377,91.746 301.731,90.783 297.360,91.381 C320.553,121.161 336.614,156.314 344.779,193.206 C351.202,222.227 354.354,252.625 355.204,282.325 L347.867,269.509 C340.713,258.617 331.739,249.162 321.755,240.840 C317.480,198.880 306.642,156.853 283.798,121.147 L242.833,282.342 L214.168,282.611 L172.304,121.147 C170.947,121.176 167.346,127.725 166.481,129.168 C146.876,161.876 137.126,203.584 133.644,241.292 C124.323,248.974 115.600,257.589 108.715,267.577 L99.699,282.926 C99.668,275.213 100.255,267.477 100.901,259.779 C102.595,239.588 104.906,219.138 109.012,199.313 C117.054,160.471 133.163,123.267 157.541,91.977 C157.793,90.642 156.940,91.116 156.032,91.067 C154.067,90.960 150.396,91.497 148.282,91.762 C142.835,92.447 136.828,93.631 131.638,95.293 C131.440,88.741 136.304,80.855 138.906,75.472 C140.581,72.005 142.531,68.679 144.834,65.591 C145.413,64.815 146.031,64.064 146.734,63.402 C148.408,61.824 150.733,61.954 152.850,61.919 C155.700,61.872 177.641,61.627 185.785,61.700 L228.061,225.192 L271.241,61.713 C277.629,61.673 284.063,61.429 290.452,61.590 C364.638,63.459 436.438,111.116 450.853,186.581 C457.352,220.610 454.127,260.341 441.839,292.702 ZM137.770,63.831 C122.604,85.350 120.372,110.050 122.456,135.757 C115.351,150.709 109.312,166.291 105.713,182.495 C103.099,179.083 101.212,173.735 99.682,169.577 C75.835,104.757 99.494,44.480 161.548,14.791 C226.409,-16.241 312.248,2.769 350.389,65.217 C337.566,61.205 324.683,57.329 311.226,55.893 C266.323,4.239 177.462,7.511 137.770,63.831 ZM51.593,149.830 C13.162,206.612 27.470,298.674 82.281,340.297 C114.249,364.573 154.730,370.109 190.703,350.599 C192.195,349.790 197.836,345.679 198.349,345.543 C198.859,345.407 199.286,345.436 199.718,345.754 C204.161,350.548 208.514,355.433 213.274,359.924 C214.729,361.297 220.550,365.092 220.250,366.802 C220.061,367.877 203.959,377.343 201.755,378.467 C164.281,397.569 115.434,395.348 79.620,373.624 C16.481,335.326 -9.651,256.125 4.663,185.389 C14.306,137.738 46.272,100.425 90.047,80.262 C85.930,92.261 84.223,104.854 83.716,117.538 C71.635,126.854 60.194,137.121 51.593,149.830 ZM294.972,213.493 C298.410,209.137 302.612,203.546 306.407,199.647 C306.980,199.058 307.196,198.509 308.200,198.735 C309.815,207.836 311.940,216.975 312.940,226.182 C313.248,229.017 314.157,233.568 313.481,236.175 C313.033,237.904 255.217,332.329 253.540,332.762 C252.998,332.903 252.642,332.766 252.144,332.609 C250.929,332.227 241.870,324.139 240.399,322.630 C238.683,320.867 233.743,315.276 232.814,313.334 C232.451,312.576 232.018,312.088 232.510,311.187 C254.925,279.605 270.936,243.945 294.972,213.493 ZM204.300,282.879 C217.643,304.499 231.044,326.510 251.622,342.102 C271.409,357.094 297.144,365.665 322.059,361.111 C320.773,368.184 317.383,375.732 313.522,381.753 C312.349,383.582 307.045,390.852 305.484,391.167 C304.444,391.376 302.993,391.218 301.880,391.172 C270.816,389.898 242.456,374.968 220.211,354.203 C185.025,321.358 169.048,274.516 141.723,235.829 L141.356,234.546 C142.376,223.095 143.1000,211.710 146.705,200.539 C172.199,223.398 186.643,254.268 204.300,282.879 ZM108.929,347.985 C106.655,347.035 94.924,341.152 93.848,339.889 C93.377,339.338 93.168,338.715 93.164,337.992 C93.103,326.985 96.288,311.794 99.681,301.260 C106.064,281.442 120.240,259.507 137.292,247.355 C138.325,246.619 138.080,244.961 139.980,245.749 L155.079,270.603 C131.968,289.819 120.932,322.525 124.398,352.086 C119.051,351.747 113.855,350.041 108.929,347.985 ZM364.155,121.549 C364.529,142.546 358.019,162.985 350.986,182.497 C349.441,182.738 350.050,182.356 349.729,181.652 C346.828,175.287 344.956,165.883 342.404,158.891 C339.471,150.855 335.927,143.032 332.487,135.211 C334.142,125.377 333.432,115.424 332.918,105.517 C343.840,109.812 354.602,114.650 364.155,121.549 ZM146.876,399.723 C191.723,444.411 266.741,444.329 310.323,397.804 C343.490,362.397 335.929,301.464 300.460,270.512 L315.735,245.044 C337.939,262.255 353.638,287.135 359.150,314.781 C366.534,351.822 357.781,386.137 330.511,412.539 C272.170,469.021 171.103,465.398 117.153,404.728 C116.234,403.694 109.857,396.088 110.544,395.393 C122.279,399.030 134.598,399.772 146.876,399.723 Z"/>
</svg>