<svg 
 xmlns="http://www.w3.org/2000/svg"
 xmlns:xlink="http://www.w3.org/1999/xlink"
 width="914px" height="156px">
<path fill-rule="evenodd"  fill="rgb(0, 0, 0)"
 d="M913.932,60.505 C913.837,60.601 913.663,60.688 913.410,60.766 C913.160,60.845 912.880,60.909 912.573,60.957 C904.015,61.178 896.364,61.439 889.590,61.740 C889.205,62.978 888.822,64.215 888.437,65.453 C887.143,69.607 885.849,73.767 884.551,77.938 C883.809,80.143 882.809,83.376 881.555,87.642 C880.942,89.723 880.352,91.738 879.784,93.688 L886.800,93.688 L886.800,96.574 C887.636,95.601 888.471,94.630 889.304,93.658 C890.196,92.596 891.093,91.541 891.998,90.497 C893.375,88.817 894.881,87.253 896.515,85.810 C897.260,85.160 897.812,84.391 898.168,83.504 C898.799,82.060 899.204,80.563 899.380,79.008 C899.380,78.960 899.380,78.904 899.380,78.843 C899.380,78.811 899.380,78.779 899.380,78.747 C899.364,78.556 899.285,78.414 899.139,78.318 C898.975,78.223 898.807,78.209 898.627,78.270 C898.627,78.286 898.619,78.295 898.606,78.295 C898.459,78.358 898.320,78.438 898.192,78.531 C897.885,78.835 897.567,79.128 897.243,79.413 C896.129,80.396 895.076,81.450 894.087,82.577 C893.652,83.115 893.141,83.591 892.559,84.004 C892.363,84.130 892.154,84.249 891.928,84.358 L891.904,84.383 C891.613,84.526 891.319,84.526 891.028,84.383 C890.721,84.241 890.528,84.012 890.446,83.693 C890.430,83.583 890.405,83.464 890.373,83.336 C890.373,83.259 890.365,83.163 890.348,83.051 C890.348,82.989 890.356,82.918 890.373,82.838 C890.373,82.633 890.397,82.401 890.446,82.148 C890.639,81.306 890.941,80.499 891.343,79.722 C891.765,78.867 892.268,78.057 892.850,77.296 C893.108,76.931 893.456,76.678 893.894,76.534 C894.071,76.486 894.234,76.534 894.380,76.678 C894.508,76.806 894.533,76.955 894.451,77.131 C894.323,77.368 894.168,77.573 893.992,77.748 C892.711,79.000 891.879,80.491 891.490,82.220 C891.458,82.377 891.450,82.545 891.466,82.718 L891.466,82.742 C891.482,82.822 891.515,82.894 891.564,82.957 C891.691,83.099 891.847,83.131 892.023,83.051 C892.866,82.545 893.595,81.927 894.209,81.197 C894.759,80.625 895.294,80.047 895.811,79.461 C896.702,78.494 897.657,77.605 898.676,76.798 C898.774,76.734 898.872,76.678 898.967,76.630 C899.016,76.598 899.073,76.566 899.139,76.534 C899.413,76.361 899.696,76.345 899.990,76.486 C900.281,76.614 900.465,76.843 900.547,77.176 C900.629,77.525 900.653,77.866 900.620,78.199 C900.523,78.755 900.416,79.301 900.305,79.842 C900.240,80.143 900.175,80.444 900.109,80.744 C900.028,81.173 899.965,81.594 899.916,82.004 C899.900,82.212 899.990,82.337 900.183,82.385 C900.232,82.401 900.272,82.409 900.305,82.409 C900.351,82.393 900.400,82.377 900.449,82.361 C900.612,82.300 900.757,82.220 900.887,82.124 C901.080,81.980 901.276,81.855 901.469,81.743 C901.681,81.618 901.817,81.522 901.882,81.458 C901.898,81.458 901.906,81.450 901.906,81.434 C902.037,81.370 902.461,81.022 903.181,80.387 C903.902,79.754 905.030,78.731 906.569,77.319 C906.586,77.304 906.640,77.272 906.738,77.224 C906.836,77.176 906.953,77.125 907.091,77.069 C907.228,77.013 907.352,76.979 907.467,76.963 C907.581,76.947 907.671,76.971 907.733,77.035 C907.749,77.051 907.763,77.085 907.771,77.141 C907.779,77.197 907.766,77.288 907.733,77.416 C905.305,79.525 903.704,80.928 902.926,81.624 C902.537,81.972 902.195,82.276 901.896,82.529 C901.594,82.782 901.276,83.035 900.936,83.290 C900.919,83.306 900.887,83.336 900.838,83.384 C900.677,83.496 900.433,83.679 900.109,83.932 C899.188,84.630 898.475,85.493 897.972,86.524 C895.789,90.758 893.366,94.864 890.713,98.843 C889.530,100.660 888.224,102.390 886.800,104.044 L886.800,155.483 L875.813,155.483 L850.823,117.555 L850.823,155.483 L838.507,155.483 L838.507,93.688 L849.494,93.688 L874.483,131.528 L874.483,93.688 L878.592,93.688 C880.201,88.304 881.828,82.925 883.486,77.557 C885.104,72.296 886.755,67.042 888.421,61.793 C884.437,61.975 880.761,62.172 877.414,62.385 C873.189,62.622 869.467,62.859 866.245,63.099 C866.082,63.130 865.946,63.117 865.832,63.061 C865.720,63.005 865.655,62.923 865.639,62.811 C865.622,62.717 865.658,62.627 865.747,62.539 C865.837,62.451 865.954,62.393 866.098,62.361 C876.002,61.626 883.522,61.151 888.696,60.929 C889.570,58.179 890.441,55.427 891.327,52.681 C891.425,52.507 891.550,52.390 891.705,52.337 C891.857,52.281 891.998,52.283 892.129,52.347 C892.211,52.395 892.271,52.475 892.312,52.585 C892.352,52.696 892.355,52.816 892.322,52.941 C891.501,55.589 890.678,58.236 889.856,60.884 C890.280,60.867 890.722,60.849 891.109,60.837 C896.289,60.601 903.557,60.364 912.913,60.124 C913.821,60.108 914.161,60.236 913.932,60.505 ZM889.668,98.819 C889.717,98.771 889.758,98.715 889.791,98.654 C889.919,98.463 890.049,98.281 890.180,98.106 C891.085,96.758 891.944,95.371 892.752,93.943 C893.029,93.485 893.304,93.032 893.578,92.588 C893.951,91.954 894.315,91.312 894.671,90.662 C894.783,90.441 894.905,90.225 895.036,90.021 C895.052,89.972 895.076,89.924 895.109,89.876 C895.367,89.419 895.536,88.934 895.618,88.428 C895.196,88.553 894.824,88.760 894.500,89.045 L894.500,89.070 C894.451,89.101 894.410,89.139 894.380,89.187 C894.087,89.442 893.820,89.703 893.578,89.972 C893.043,90.574 892.510,91.187 891.974,91.805 C890.133,93.780 888.412,95.845 886.800,97.994 L886.800,102.747 C887.822,101.477 888.779,100.169 889.668,98.819 ZM868.167,72.563 C867.991,72.547 867.833,72.484 867.694,72.372 C867.556,72.262 867.471,72.126 867.439,71.969 C867.406,71.716 867.479,71.490 867.659,71.290 C867.835,71.093 868.061,70.995 868.339,70.995 C868.515,70.995 868.654,71.072 868.752,71.232 C868.765,71.280 868.782,71.322 868.798,71.362 C868.814,71.402 868.823,71.437 868.823,71.469 C868.823,71.722 868.806,71.969 868.774,72.206 C868.741,72.318 868.665,72.409 868.545,72.481 C868.423,72.550 868.298,72.579 868.167,72.563 ZM866.139,76.465 C866.261,76.526 866.338,76.598 866.370,76.678 C866.468,76.947 866.476,77.200 866.395,77.440 C866.267,77.692 866.128,77.938 865.981,78.177 C865.870,78.382 865.756,78.587 865.642,78.795 C865.350,79.349 865.245,79.935 865.326,80.555 C865.424,81.125 865.780,81.450 866.395,81.530 C866.653,81.546 866.914,81.530 867.172,81.482 C868.192,81.245 869.179,80.888 870.136,80.411 C872.757,79.208 875.410,78.066 878.100,76.987 C878.342,76.891 878.591,76.867 878.853,76.915 C879.046,76.963 879.168,77.075 879.217,77.248 C879.247,77.440 879.192,77.597 879.046,77.725 C878.915,77.836 878.771,77.921 878.608,77.986 C876.294,78.811 874.035,79.762 871.835,80.840 C871.041,81.205 870.239,81.554 869.432,81.887 C868.540,82.252 867.610,82.505 866.639,82.646 C866.378,82.694 866.120,82.710 865.862,82.694 C864.842,82.553 864.250,82.004 864.089,81.054 C864.073,80.864 864.064,80.689 864.064,80.532 C864.064,80.483 864.064,80.436 864.064,80.387 C864.105,79.738 864.211,79.123 864.382,78.542 C864.220,78.635 864.059,78.729 863.896,78.819 C863.879,78.835 863.863,78.851 863.847,78.867 C862.566,79.610 861.337,80.428 860.154,81.315 C859.298,81.919 858.602,82.678 858.066,83.600 C858.050,83.600 858.042,83.608 858.042,83.624 C857.735,84.225 857.354,84.787 856.903,85.312 C856.628,85.645 856.305,85.922 855.932,86.143 C855.769,86.206 855.606,86.263 855.445,86.310 C855.250,86.327 855.089,86.279 854.959,86.167 C854.864,86.087 854.801,85.977 854.776,85.834 C854.752,85.692 854.774,85.565 854.839,85.453 C854.872,85.392 854.910,85.328 854.959,85.264 C855.040,85.104 855.138,84.955 855.250,84.811 C855.850,84.065 856.457,83.336 857.071,82.624 C857.640,81.956 858.026,81.197 858.238,80.340 C858.480,79.453 858.311,78.651 857.727,77.938 C857.588,77.769 857.442,77.609 857.291,77.457 C857.313,77.605 857.280,77.743 857.169,77.866 C857.104,77.930 857.039,77.986 856.974,78.033 C855.388,78.952 853.882,79.991 852.457,81.149 C852.101,81.434 851.745,81.719 851.389,82.004 C850.644,82.593 849.899,83.171 849.157,83.740 C848.539,84.201 847.900,84.646 847.237,85.072 C846.930,85.248 846.614,85.381 846.291,85.477 L846.266,85.477 C845.926,85.573 845.638,85.517 845.405,85.312 C845.168,85.104 845.051,84.843 845.051,84.526 C845.051,84.273 845.084,84.020 845.149,83.765 C845.391,82.926 845.731,82.132 846.168,81.386 C846.750,80.324 847.311,79.253 847.843,78.177 C847.941,77.938 848.007,77.684 848.039,77.416 C848.055,77.336 848.072,77.256 848.088,77.176 C848.102,77.147 848.102,77.107 848.088,77.058 C848.072,77.011 848.055,76.971 848.039,76.939 C847.974,76.859 847.900,76.808 847.819,76.785 C847.737,76.761 847.659,76.774 847.577,76.819 C847.057,77.107 846.549,77.392 846.046,77.677 C845.497,77.993 844.940,78.303 844.371,78.603 C843.917,78.859 843.449,79.088 842.963,79.293 C842.542,79.469 842.115,79.525 841.677,79.461 C841.222,79.397 840.899,79.232 840.706,78.960 C840.543,78.736 840.494,78.478 840.511,78.198 C839.228,79.062 837.923,79.893 836.579,80.672 C835.284,81.514 833.909,82.196 832.452,82.718 C831.674,82.974 830.760,83.099 829.708,83.099 C828.816,83.083 828.071,82.872 827.473,82.467 C826.875,82.066 826.646,81.378 826.793,80.411 C826.842,80.175 826.891,80.007 826.940,79.911 C827.150,79.389 827.389,78.920 827.655,78.510 C827.922,78.097 828.259,77.637 828.664,77.131 C829.004,76.734 829.637,76.111 830.570,75.264 C831.500,74.414 832.492,73.767 833.544,73.325 C833.672,73.277 833.909,73.221 834.249,73.157 C834.588,73.093 834.953,73.125 835.342,73.253 C835.502,73.333 835.649,73.429 835.777,73.538 C835.956,73.714 836.035,73.911 836.021,74.132 C836.005,74.356 835.981,74.529 835.948,74.657 C835.948,74.672 835.940,74.689 835.923,74.704 C835.728,75.338 835.219,75.922 834.393,76.451 C833.569,76.984 832.718,77.426 831.845,77.783 C830.970,78.140 830.363,78.366 830.024,78.462 C829.975,78.478 829.866,78.526 829.694,78.603 C829.526,78.683 829.327,78.803 829.099,78.960 C828.550,79.293 828.210,79.778 828.079,80.411 C827.903,81.395 828.357,81.996 829.439,82.220 C829.716,82.268 829.983,82.268 830.241,82.220 C831.552,82.028 832.800,81.634 833.979,81.030 C834.983,80.491 835.964,79.922 836.919,79.317 C838.118,78.572 839.331,77.860 840.562,77.176 C840.638,77.122 840.721,77.083 840.807,77.049 C841.470,75.610 842.433,74.409 843.692,73.442 C843.917,73.269 844.145,73.085 844.371,72.896 C844.630,72.707 844.891,72.515 845.149,72.327 C845.780,71.850 846.467,71.477 847.213,71.208 C847.552,71.096 847.900,71.072 848.257,71.136 C848.515,71.200 848.713,71.354 848.852,71.599 C848.988,71.847 849.010,72.087 848.912,72.327 C848.896,72.358 848.879,72.387 848.863,72.420 C848.768,72.643 848.654,72.841 848.523,73.016 C847.213,74.649 845.611,75.964 843.716,76.963 C843.586,77.043 843.449,77.107 843.303,77.155 C842.868,77.312 842.487,77.549 842.163,77.866 C842.147,77.882 842.142,77.903 842.150,77.927 C842.158,77.951 842.163,77.978 842.163,78.009 C842.163,78.042 842.169,78.066 842.185,78.081 C842.201,78.097 842.226,78.113 842.258,78.129 C842.275,78.129 842.297,78.137 842.321,78.153 C842.346,78.169 842.373,78.177 842.405,78.177 C842.582,78.161 842.753,78.121 842.914,78.057 C844.194,77.487 845.423,76.819 846.606,76.060 C847.106,75.727 847.650,75.450 848.232,75.227 C848.539,75.131 848.830,75.163 849.108,75.322 C849.382,75.479 849.542,75.727 849.591,76.060 C849.624,76.313 849.608,76.566 849.542,76.819 C849.366,77.392 849.145,77.954 848.887,78.510 C848.466,79.333 848.047,80.150 847.626,80.958 C847.414,81.370 847.204,81.783 846.995,82.196 C846.962,82.228 846.938,82.268 846.922,82.313 C846.680,82.726 846.516,83.163 846.435,83.624 C846.435,83.669 846.443,83.714 846.459,83.754 C846.476,83.794 846.492,83.828 846.508,83.861 C846.623,83.988 846.775,84.020 846.971,83.956 L846.995,83.956 C847.074,83.940 847.147,83.908 847.213,83.861 C847.245,83.844 847.286,83.820 847.335,83.789 C847.512,83.679 847.691,83.551 847.868,83.408 C849.472,82.076 851.114,80.793 852.797,79.557 C853.055,79.365 853.309,79.176 853.550,78.984 C853.776,78.779 854.004,78.587 854.230,78.414 C854.795,78.001 855.372,77.605 855.954,77.224 C856.114,77.131 856.302,77.058 856.511,77.011 C856.576,76.995 856.642,76.979 856.707,76.963 C856.722,76.960 856.739,76.968 856.754,76.968 C856.592,76.823 856.423,76.679 856.247,76.534 C856.036,76.361 855.834,76.185 855.638,76.012 C855.299,75.695 855.114,75.306 855.081,74.846 C855.097,74.798 855.106,74.752 855.106,74.704 C855.122,74.592 855.154,74.481 855.203,74.372 C855.299,74.132 855.437,73.919 855.614,73.730 C856.247,73.000 857.031,72.476 857.971,72.159 C858.374,72.002 858.803,71.962 859.258,72.039 C859.516,72.102 859.712,72.255 859.839,72.491 C859.970,72.728 859.986,72.976 859.888,73.229 C859.855,73.309 859.815,73.389 859.768,73.466 C859.540,73.815 859.249,73.935 858.893,73.823 C858.779,73.775 858.684,73.730 858.602,73.682 C858.455,73.602 858.319,73.538 858.189,73.490 C858.009,73.442 857.841,73.450 857.678,73.514 C857.259,73.658 856.919,73.919 856.658,74.300 C856.530,74.473 856.471,74.675 856.476,74.907 C856.487,75.136 856.563,75.330 856.707,75.488 C856.772,75.551 856.837,75.623 856.903,75.703 C857.128,75.956 857.362,76.193 857.607,76.417 C858.659,77.288 859.241,78.398 859.355,79.746 C859.355,79.826 859.390,79.897 859.464,79.959 C859.537,80.023 859.616,80.068 859.706,80.090 C859.796,80.113 859.872,80.103 859.937,80.055 C860.019,80.023 860.098,79.983 860.179,79.935 C860.326,79.858 860.473,79.770 860.617,79.674 C860.842,79.533 861.063,79.381 861.272,79.221 C861.563,79.032 861.846,78.843 862.123,78.651 C862.852,78.177 863.588,77.717 864.331,77.272 C864.550,77.152 864.783,77.068 865.031,77.019 C865.058,76.969 865.079,76.916 865.108,76.867 C865.190,76.758 865.277,76.662 865.375,76.582 C865.408,76.550 865.440,76.518 865.473,76.486 C865.538,76.409 865.633,76.369 865.764,76.369 C865.894,76.369 866.019,76.401 866.139,76.465 ZM830.847,76.880 C831.203,76.728 831.608,76.550 832.063,76.345 C832.517,76.140 832.927,75.930 833.300,75.714 C833.672,75.501 833.909,75.322 834.004,75.178 C834.053,75.069 834.086,74.976 834.102,74.907 C834.118,74.835 834.118,74.760 834.102,74.681 C834.069,74.617 834.037,74.569 834.004,74.537 C833.971,74.505 833.923,74.473 833.860,74.441 C833.713,74.396 833.417,74.526 832.974,74.835 C832.527,75.144 832.049,75.519 831.541,75.964 C831.029,76.409 830.589,76.798 830.216,77.131 C830.282,77.115 830.491,77.030 830.847,76.880 ZM843.134,75.844 C843.167,75.860 843.207,75.868 843.254,75.868 C843.303,75.868 843.344,75.852 843.376,75.820 C844.882,75.093 846.111,74.047 847.066,72.683 C846.291,72.841 845.595,73.165 844.978,73.658 C844.282,74.164 843.659,74.752 843.110,75.418 C842.963,75.591 842.971,75.735 843.134,75.844 ZM827.468,78.009 C826.870,78.073 826.260,78.113 825.646,78.129 C825.306,78.129 824.966,78.129 824.626,78.129 C824.254,78.113 823.890,78.105 823.533,78.105 C822.076,78.185 820.725,77.866 819.480,77.155 C819.333,77.058 819.181,76.979 819.017,76.915 C818.563,76.758 818.153,76.814 817.780,77.083 C817.424,77.352 817.100,77.645 816.807,77.962 C815.869,78.944 814.931,79.935 813.990,80.934 C813.732,81.205 813.473,81.482 813.215,81.767 C812.938,82.068 812.655,82.369 812.364,82.670 C811.815,83.259 811.263,83.844 810.714,84.430 C810.472,84.670 810.186,84.867 809.863,85.027 C809.555,85.168 809.256,85.173 808.965,85.037 C808.674,84.902 808.503,84.678 808.454,84.358 C808.438,84.057 808.430,83.765 808.430,83.479 C808.430,83.352 808.430,83.235 808.430,83.123 C808.479,82.949 808.528,82.774 808.577,82.601 C808.658,82.236 808.762,81.895 808.892,81.578 C809.361,80.420 809.809,79.261 810.252,78.103 C808.049,78.902 805.893,79.811 803.794,80.840 C802.1000,81.205 802.198,81.554 801.390,81.887 C800.499,82.252 799.569,82.505 798.598,82.646 C798.337,82.694 798.079,82.710 797.821,82.694 C796.801,82.553 796.208,82.004 796.048,81.054 C796.031,80.864 796.023,80.689 796.023,80.532 C796.023,80.483 796.023,80.436 796.023,80.387 C796.074,79.569 796.241,78.812 796.498,78.103 C794.495,78.635 792.572,79.370 790.729,80.316 C789.628,80.873 788.503,81.363 787.355,81.791 C786.787,81.996 786.205,82.172 785.607,82.313 C785.330,82.361 785.096,82.385 784.903,82.385 C784.838,82.385 784.781,82.393 784.732,82.409 C783.663,82.329 782.798,82.004 782.135,81.434 C781.730,81.101 781.382,80.713 781.091,80.268 C780.879,79.935 780.678,79.602 780.482,79.269 C780.338,79.000 780.183,78.739 780.022,78.486 C779.924,78.311 779.810,78.146 779.682,77.986 C779.650,77.938 779.617,77.898 779.585,77.866 C779.422,77.677 779.193,77.557 778.894,77.509 C778.592,77.464 778.339,77.509 778.127,77.652 C778.095,77.684 778.054,77.717 778.008,77.748 C777.893,77.813 777.796,77.882 777.714,77.962 C776.825,78.803 776.039,79.722 775.359,80.721 C775.117,81.101 774.876,81.474 774.631,81.839 C774.438,82.124 774.250,82.409 774.073,82.694 C773.505,83.567 772.874,84.391 772.178,85.168 C771.985,85.360 771.757,85.477 771.499,85.525 C771.371,85.557 771.240,85.541 771.110,85.477 C770.982,85.413 770.892,85.320 770.843,85.192 C770.729,84.955 770.697,84.707 770.746,84.454 C770.925,83.600 771.175,82.774 771.499,81.980 C771.727,81.442 771.953,80.904 772.178,80.364 C772.518,79.541 772.858,78.723 773.198,77.913 C773.296,77.709 773.386,77.503 773.467,77.296 C773.869,76.393 774.234,75.474 774.557,74.537 C774.688,74.124 774.851,73.730 775.044,73.349 C775.740,71.841 776.297,70.297 776.719,68.710 C776.817,68.297 776.993,67.911 777.255,67.546 C777.317,67.466 777.429,67.413 777.581,67.391 C777.736,67.368 777.861,67.378 777.959,67.426 C778.008,67.458 778.046,67.490 778.079,67.522 C778.111,67.554 778.136,67.586 778.152,67.615 C778.184,67.871 778.201,68.124 778.201,68.377 C778.184,68.553 778.136,68.718 778.054,68.877 C777.603,69.796 777.189,70.739 776.817,71.706 C776.654,72.118 776.493,72.523 776.330,72.920 C775.634,74.601 774.922,76.273 774.193,77.938 C773.562,79.365 773.013,80.816 772.543,82.292 C772.494,82.497 772.559,82.616 772.738,82.646 C772.787,82.646 772.831,82.635 772.872,82.611 C772.912,82.588 772.948,82.561 772.980,82.529 C773.886,81.277 774.794,80.007 775.699,78.723 C776.265,77.945 776.939,77.272 777.714,76.702 C778.008,76.497 778.315,76.329 778.638,76.201 C779.188,76.012 779.682,76.108 780.120,76.486 C780.362,76.726 780.580,76.995 780.776,77.296 C780.903,77.520 781.026,77.756 781.140,78.009 C781.202,78.169 781.268,78.318 781.333,78.462 C781.365,78.510 781.398,78.564 781.431,78.627 C781.591,78.960 781.770,79.285 781.964,79.602 C782.872,81.062 784.239,81.586 786.067,81.173 C786.439,81.093 786.803,80.974 787.160,80.816 C787.209,80.801 787.257,80.784 787.306,80.769 C788.859,80.167 790.390,79.501 791.896,78.771 C793.158,78.153 794.452,77.613 795.781,77.155 C796.105,77.043 796.445,76.971 796.801,76.939 C796.878,76.932 796.953,76.936 797.028,76.944 C797.042,76.919 797.053,76.892 797.067,76.867 C797.149,76.758 797.236,76.662 797.334,76.582 C797.366,76.550 797.399,76.518 797.432,76.486 C797.497,76.409 797.592,76.369 797.723,76.369 C797.853,76.369 797.978,76.401 798.098,76.465 C798.220,76.526 798.296,76.598 798.329,76.678 C798.427,76.947 798.435,77.200 798.354,77.440 C798.226,77.692 798.087,77.938 797.940,78.177 C797.829,78.382 797.714,78.587 797.600,78.795 C797.309,79.349 797.203,79.935 797.285,80.555 C797.383,81.125 797.739,81.450 798.354,81.530 C798.612,81.546 798.873,81.530 799.131,81.482 C800.151,81.245 801.138,80.888 802.094,80.411 C804.716,79.208 807.369,78.066 810.058,76.987 C810.272,76.902 810.493,76.877 810.721,76.904 C810.959,76.290 811.196,75.674 811.442,75.061 C811.554,74.822 811.733,74.633 811.975,74.489 C812.090,74.441 812.220,74.441 812.364,74.489 C812.511,74.537 812.590,74.625 812.606,74.752 C812.606,74.784 812.606,74.822 812.606,74.870 C812.622,74.997 812.622,75.123 812.606,75.251 C812.544,75.504 812.454,75.751 812.339,75.988 C811.823,77.003 811.352,78.033 810.931,79.080 C810.738,79.557 810.534,80.023 810.325,80.483 C809.952,81.277 809.767,82.116 809.767,83.003 C809.767,83.195 809.863,83.322 810.058,83.384 C810.219,83.448 810.382,83.424 810.542,83.314 C810.898,83.075 811.206,82.798 811.467,82.481 C811.546,82.401 811.619,82.324 811.684,82.244 C812.413,81.466 813.150,80.681 813.895,79.889 C814.996,78.715 816.103,77.533 817.220,76.345 C817.755,75.791 818.321,75.251 818.919,74.729 C819.066,74.601 819.227,74.505 819.406,74.441 C819.471,74.411 819.537,74.380 819.599,74.348 C819.681,74.316 819.765,74.310 819.855,74.334 C819.945,74.358 820.026,74.398 820.097,74.454 C820.170,74.510 820.208,74.577 820.208,74.657 C820.208,74.689 820.208,74.721 820.208,74.752 C820.225,74.974 820.225,75.194 820.208,75.418 C820.176,75.767 820.262,76.055 820.475,76.286 C820.684,76.516 820.937,76.670 821.228,76.750 C821.244,76.750 821.269,76.758 821.301,76.774 C821.527,76.835 821.753,76.891 821.981,76.939 C823.194,77.176 824.425,77.240 825.670,77.131 C825.687,77.131 825.711,77.123 825.744,77.107 C826.407,77.011 827.079,76.995 827.759,77.058 C827.968,77.091 828.098,77.192 828.148,77.368 C828.180,77.573 828.115,77.725 827.954,77.820 C827.808,77.913 827.644,77.978 827.468,78.009 ZM800.504,72.481 C800.382,72.550 800.257,72.579 800.126,72.563 C799.949,72.547 799.792,72.484 799.653,72.372 C799.514,72.262 799.430,72.126 799.397,71.969 C799.365,71.716 799.438,71.490 799.618,71.290 C799.795,71.093 800.020,70.995 800.297,70.995 C800.474,70.995 800.613,71.072 800.711,71.232 C800.724,71.280 800.741,71.322 800.757,71.362 C800.773,71.402 800.781,71.437 800.781,71.469 C800.781,71.722 800.765,71.969 800.733,72.206 C800.700,72.318 800.624,72.409 800.504,72.481 ZM788.598,33.655 C787.758,35.050 786.964,36.270 786.219,37.316 C785.895,37.793 785.645,38.166 785.466,38.435 C784.220,40.273 782.934,42.105 781.605,43.929 C780.392,45.578 779.209,47.245 778.062,48.933 C776.912,50.625 775.843,52.363 774.856,54.156 C772.880,57.818 771.072,61.551 769.429,65.357 C767.785,69.163 766.197,72.992 764.658,76.843 C763.720,79.176 762.763,81.514 761.792,83.861 C760.464,87.113 759.219,90.390 758.047,93.688 L767.795,93.688 L767.795,155.483 L755.479,155.483 L755.479,101.379 C752.970,109.326 750.888,117.397 749.263,125.600 C749.038,126.899 748.923,128.207 748.923,129.523 C748.923,129.714 748.923,129.895 748.923,130.071 C748.923,130.087 748.923,130.103 748.923,130.119 C748.923,130.436 748.902,130.836 748.863,131.320 C748.823,131.802 748.708,132.188 748.524,132.473 C748.336,132.758 748.018,132.751 747.564,132.450 C747.012,131.419 746.895,129.893 747.210,127.871 C747.528,125.850 747.944,123.832 748.461,121.818 C748.850,120.263 749.124,118.979 749.288,117.965 C750.918,110.579 752.988,103.324 755.479,96.195 L755.479,93.688 L756.367,93.688 C757.382,90.907 758.459,88.146 759.606,85.405 C760.723,82.204 762.018,79.056 763.491,75.964 C764.416,73.951 765.288,71.929 766.115,69.900 C766.939,67.871 767.627,65.802 768.179,63.693 C760.878,74.205 753.482,84.655 745.998,95.046 L745.998,104.449 L739.172,104.449 C735.971,108.846 732.751,113.231 729.516,117.606 L729.516,155.483 L717.199,155.483 L717.199,131.752 C716.489,132.254 715.749,132.717 714.977,133.139 C713.294,133.978 711.587,134.114 709.855,133.544 C708.123,132.972 706.883,131.824 706.138,130.095 C705.086,127.416 704.577,124.572 704.610,121.568 C704.643,118.564 704.885,115.643 705.339,112.803 C705.762,109.997 706.300,107.217 706.890,104.449 L700.717,104.449 L700.717,93.688 L709.603,93.688 C710.208,91.654 710.856,89.630 711.554,87.618 C714.404,79.405 717.680,71.381 721.389,63.548 C721.680,62.963 721.962,62.369 722.237,61.764 C723.923,58.135 725.717,54.457 727.629,50.731 C729.537,47.005 731.748,43.207 734.257,39.338 C736.767,35.469 739.769,31.505 743.265,27.447 C743.752,26.861 744.367,26.433 745.111,26.163 C745.612,26.051 746.001,26.131 746.278,26.400 C746.552,26.669 746.672,26.994 746.642,27.375 C746.609,27.756 746.373,28.073 745.938,28.326 C744.108,29.183 742.593,30.395 741.397,31.966 C738.888,34.914 736.699,37.924 734.828,40.991 C732.958,44.060 731.101,47.338 729.254,50.824 C728.509,52.174 727.936,53.197 727.531,53.892 C727.109,54.576 726.737,55.237 726.413,55.879 C726.090,56.521 725.693,57.437 725.225,58.627 C723.752,61.559 722.441,64.286 721.291,66.808 C720.141,69.328 718.757,72.467 717.139,76.225 L717.139,76.201 L717.115,76.201 C717.066,76.329 717.017,76.465 716.968,76.606 C715.301,81.045 713.702,85.525 712.174,90.044 C711.766,91.251 711.422,92.473 711.049,93.688 L745.021,93.688 C746.983,90.964 748.952,88.246 750.903,85.514 C757.871,75.754 764.674,65.889 771.311,55.916 C772.138,54.837 773.051,53.338 774.054,51.421 C775.058,49.501 776.110,47.394 777.211,45.093 C778.410,42.606 779.631,40.166 780.879,37.780 C782.124,35.394 783.353,33.349 784.568,31.644 C785.784,29.940 786.939,28.874 788.041,28.446 C789.482,28.430 790.145,28.944 790.031,29.990 C789.919,31.037 789.441,32.259 788.598,33.655 ZM717.199,104.449 L708.203,104.449 C707.265,108.857 706.698,113.321 706.527,117.848 C706.383,119.083 706.312,120.495 706.320,122.079 C706.328,123.664 706.486,125.211 706.796,126.718 C707.104,128.223 707.636,129.477 708.398,130.476 C709.192,131.523 710.111,132.157 711.155,132.378 C712.199,132.599 713.286,132.361 714.420,131.664 C715.389,131.066 716.315,130.420 717.199,129.727 L717.199,104.449 ZM729.516,104.449 L729.516,115.005 C729.607,114.882 729.698,114.758 729.790,114.636 C732.282,111.249 734.755,107.848 737.230,104.449 L729.516,104.449 ZM785.928,32.797 C785.069,33.908 784.386,34.957 783.875,35.947 C783.367,36.941 782.853,38.054 782.333,39.290 C782.140,39.735 781.936,40.211 781.727,40.718 C782.391,39.940 783.225,38.824 784.228,37.365 C785.023,36.206 785.743,35.037 786.390,33.857 C787.037,32.675 787.380,31.895 787.420,31.514 C787.461,31.133 786.964,31.562 785.928,32.797 ZM650.327,76.939 C650.262,76.859 650.188,76.808 650.107,76.785 C650.025,76.761 649.946,76.774 649.865,76.819 C649.345,77.107 648.837,77.392 648.334,77.677 C647.785,77.993 647.227,78.303 646.659,78.603 C646.205,78.859 645.737,79.088 645.251,79.293 C644.829,79.469 644.403,79.525 643.964,79.461 C643.510,79.397 643.187,79.232 642.994,78.960 C642.798,78.691 642.736,78.382 642.798,78.033 C642.831,77.684 642.929,77.360 643.089,77.058 C643.753,75.615 644.718,74.411 645.979,73.442 C646.205,73.269 646.433,73.085 646.659,72.896 C646.917,72.707 647.178,72.515 647.437,72.327 C648.068,71.850 648.755,71.477 649.500,71.208 C649.840,71.096 650.188,71.072 650.544,71.136 C650.803,71.200 651.001,71.354 651.140,71.599 C651.276,71.847 651.297,72.087 651.200,72.327 C651.183,72.358 651.167,72.387 651.151,72.420 C651.055,72.643 650.941,72.841 650.811,73.016 C649.500,74.649 647.899,75.964 646.004,76.963 C645.873,77.043 645.737,77.107 645.590,77.155 C645.156,77.312 644.775,77.549 644.451,77.866 C644.435,77.882 644.429,77.903 644.438,77.927 C644.446,77.951 644.451,77.978 644.451,78.009 C644.451,78.042 644.457,78.066 644.473,78.081 C644.489,78.097 644.514,78.113 644.546,78.129 C644.563,78.129 644.584,78.137 644.609,78.153 C644.633,78.169 644.661,78.177 644.693,78.177 C644.870,78.161 645.041,78.121 645.202,78.057 C646.482,77.487 647.711,76.819 648.894,76.060 C649.394,75.727 649.938,75.450 650.520,75.227 C650.827,75.131 651.118,75.163 651.395,75.322 C651.670,75.479 651.830,75.727 651.879,76.060 C651.912,76.313 651.896,76.566 651.830,76.819 C651.654,77.392 651.434,77.954 651.175,78.510 C650.754,79.333 650.335,80.150 649.914,80.958 C649.702,81.370 649.492,81.783 649.283,82.196 C649.250,82.228 649.226,82.268 649.209,82.313 C648.967,82.726 648.804,83.163 648.723,83.624 C648.723,83.669 648.731,83.714 648.747,83.754 C648.764,83.794 648.780,83.828 648.796,83.861 C648.910,83.988 649.062,84.020 649.258,83.956 L649.283,83.956 C649.362,83.940 649.435,83.908 649.500,83.861 C649.533,83.844 649.574,83.820 649.623,83.789 C649.799,83.679 649.979,83.551 650.156,83.408 C651.760,82.076 653.402,80.793 655.085,79.557 C655.343,79.365 655.596,79.176 655.838,78.984 C656.064,78.779 656.292,78.587 656.518,78.414 C657.083,78.001 657.660,77.605 658.242,77.224 C658.402,77.131 658.590,77.058 658.799,77.011 C658.864,76.995 658.929,76.979 658.995,76.963 C659.093,76.947 659.201,76.984 659.321,77.069 C659.443,77.157 659.528,77.264 659.577,77.392 C659.625,77.565 659.585,77.725 659.457,77.866 C659.392,77.930 659.326,77.986 659.261,78.033 C657.676,78.952 656.170,79.991 654.745,81.149 C654.389,81.434 654.033,81.719 653.676,82.004 C652.931,82.593 652.187,83.171 651.444,83.740 C650.827,84.201 650.188,84.646 649.525,85.072 C649.218,85.248 648.902,85.381 648.579,85.477 L648.554,85.477 C648.214,85.573 647.926,85.517 647.692,85.312 C647.456,85.104 647.339,84.843 647.339,84.526 C647.339,84.273 647.371,84.020 647.437,83.765 C647.678,82.926 648.019,82.132 648.456,81.386 C649.038,80.324 649.598,79.253 650.131,78.177 C650.229,77.938 650.294,77.684 650.327,77.416 C650.343,77.336 650.360,77.256 650.376,77.176 C650.390,77.147 650.390,77.107 650.376,77.058 C650.360,77.011 650.343,76.971 650.327,76.939 ZM645.422,75.844 C645.454,75.860 645.495,75.868 645.541,75.868 C645.590,75.868 645.631,75.852 645.664,75.820 C647.170,75.093 648.399,74.047 649.354,72.683 C648.579,72.841 647.883,73.165 647.265,73.658 C646.569,74.164 645.947,74.752 645.397,75.418 C645.251,75.591 645.259,75.735 645.422,75.844 ZM707.471,60.766 C707.220,60.845 706.940,60.909 706.633,60.957 C698.075,61.178 690.424,61.439 683.650,61.740 C683.266,62.978 682.882,64.215 682.497,65.453 C681.203,69.607 679.909,73.767 678.612,77.938 C677.870,80.143 676.869,83.376 675.616,87.642 C675.002,89.723 674.412,91.738 673.844,93.688 L675.110,93.688 L698.150,155.483 L685.300,155.483 L681.578,144.548 L659.160,144.548 L655.351,155.483 L642.502,155.483 L665.452,93.688 L672.652,93.688 C674.262,88.304 675.888,82.925 677.546,77.557 C679.165,72.296 680.816,67.042 682.481,61.793 C678.498,61.975 674.821,62.172 671.475,62.385 C671.164,62.402 670.875,62.420 670.570,62.437 C670.501,62.483 670.440,62.534 670.363,62.574 C669.797,62.875 669.188,62.963 668.541,62.835 C668.476,62.821 668.413,62.797 668.348,62.766 C668.283,62.734 668.242,62.694 668.226,62.646 C668.212,62.619 668.226,62.599 668.217,62.574 C665.311,62.748 662.671,62.923 660.305,63.099 C660.142,63.130 660.006,63.117 659.892,63.061 C659.780,63.005 659.715,62.923 659.699,62.811 C659.683,62.717 659.718,62.627 659.808,62.539 C659.898,62.451 660.015,62.393 660.158,62.361 C663.291,62.128 666.167,61.924 668.826,61.743 C668.914,61.659 668.996,61.570 669.063,61.469 C669.218,61.240 669.205,60.981 669.028,60.696 C668.786,60.395 668.454,60.212 668.033,60.148 C666.219,59.783 664.337,59.597 662.385,59.589 C660.436,59.580 658.497,59.634 656.572,59.743 C655.795,59.775 655.033,59.807 654.288,59.839 C649.886,60.015 645.482,60.268 641.080,60.601 C640.772,60.616 640.465,60.640 640.158,60.672 C638.878,60.752 637.624,60.941 636.392,61.242 C635.471,61.479 634.815,62.028 634.427,62.883 C634.054,63.660 633.722,64.462 633.431,65.285 C632.849,66.872 632.265,68.449 631.683,70.018 C629.821,74.982 628.015,79.964 626.267,84.966 C625.257,87.858 624.313,90.768 623.406,93.688 L635.234,93.688 L635.234,155.483 L622.917,155.483 L622.917,95.318 C622.434,96.911 621.938,98.501 621.484,100.103 C620.465,103.719 619.535,107.357 618.692,111.022 C618.418,112.385 618.213,113.757 618.086,115.136 C618.070,115.421 618.045,115.706 618.012,115.991 C617.996,116.103 617.980,116.220 617.964,116.348 C617.915,116.950 617.819,117.565 617.673,118.191 C617.526,118.817 617.259,119.360 616.870,119.821 C616.838,119.853 616.737,119.928 616.569,120.047 C616.397,120.164 616.207,120.287 615.998,120.415 C615.785,120.543 615.603,120.628 615.451,120.676 C615.296,120.724 615.228,120.692 615.245,120.582 C617.170,110.814 619.679,101.222 622.770,91.805 C625.862,82.385 629.157,73.016 632.654,63.693 C632.849,63.216 632.929,62.734 632.896,62.241 C632.863,62.084 632.779,61.916 632.643,61.743 C632.504,61.568 632.355,61.455 632.192,61.410 C632.129,61.410 632.064,61.402 631.999,61.386 C631.819,61.322 631.642,61.298 631.463,61.314 C631.400,61.314 631.335,61.314 631.270,61.314 C631.221,61.314 631.172,61.322 631.123,61.338 C616.378,62.558 601.639,63.993 586.908,65.642 C586.891,65.674 586.875,65.698 586.859,65.714 C586.019,66.632 585.274,67.623 584.627,68.686 C583.977,69.749 583.338,70.819 582.707,71.898 C579.292,77.748 576.027,83.655 572.911,89.615 C569.792,95.578 566.948,101.698 564.376,107.975 C564.033,109.038 563.501,109.975 562.772,110.782 C562.530,111.006 562.250,111.144 561.934,111.200 C561.619,111.253 561.396,111.147 561.266,110.878 C561.219,110.750 561.219,110.617 561.266,110.473 C561.315,110.332 561.380,110.196 561.461,110.068 C563.694,105.994 565.760,101.839 567.653,97.608 C569.724,92.960 572.016,88.428 574.523,84.004 C576.709,80.260 578.895,76.518 581.081,72.776 C581.339,72.302 581.606,71.834 581.881,71.373 C582.449,70.422 583.006,69.463 583.558,68.497 C583.751,68.164 583.944,67.823 584.140,67.474 C584.431,66.981 584.627,66.459 584.722,65.903 C581.663,66.252 578.604,66.609 575.545,66.973 C572.484,67.338 569.417,67.711 566.342,68.092 C566.002,67.980 565.806,67.767 565.760,67.450 C565.744,67.258 565.812,67.080 565.964,66.915 C566.119,66.747 566.318,66.657 566.559,66.640 C572.631,65.802 578.822,65.008 585.135,64.262 C585.315,64.121 585.491,63.969 585.671,63.812 C586.236,63.319 586.739,62.835 587.174,62.361 C590.883,56.939 594.401,52.014 597.737,47.591 C598.208,46.845 598.732,46.148 599.317,45.498 C600.562,43.881 601.759,42.334 602.909,40.861 L602.933,40.837 L602.933,40.813 C603.192,40.385 603.482,39.979 603.809,39.599 C606.188,36.715 608.567,33.836 610.946,30.968 C611.174,30.696 611.408,30.435 611.650,30.182 C616.006,25.077 619.619,21.151 622.493,18.409 C625.364,15.665 627.879,13.503 630.033,11.916 C632.621,9.934 635.030,8.232 637.254,6.815 C639.481,5.396 641.411,4.243 643.046,3.354 L643.070,3.330 L643.094,3.305 C645.248,1.705 647.643,0.619 650.283,0.048 C651.074,-0.095 651.803,0.022 652.467,0.392 C653.130,0.765 653.601,1.340 653.875,2.118 C654.038,2.592 654.133,3.076 654.166,3.569 C654.264,5.820 654.030,8.033 653.464,10.203 C651.926,15.865 650.055,21.415 647.855,26.853 C646.833,29.372 645.862,31.911 644.941,34.462 C644.633,35.303 644.318,36.142 643.994,36.984 C642.795,40.217 641.588,43.453 640.376,46.688 C639.631,48.717 638.878,50.739 638.116,52.752 C637.907,53.306 637.698,53.863 637.486,54.417 C637.211,55.147 636.936,55.876 636.661,56.606 C636.531,56.984 636.417,57.373 636.322,57.770 C636.305,57.849 636.281,57.937 636.248,58.031 C636.183,58.318 636.248,58.611 636.441,58.912 C636.637,59.213 636.879,59.402 637.170,59.482 C637.252,59.498 637.325,59.522 637.390,59.554 C637.535,59.602 637.681,59.634 637.825,59.650 C638.394,59.618 638.959,59.586 639.525,59.554 L639.549,59.719 C639.631,59.719 639.720,59.714 639.818,59.698 C645.272,59.016 650.759,58.635 656.279,58.555 C656.651,58.555 657.024,58.547 657.396,58.531 C659.468,58.483 661.548,58.491 663.636,58.555 C665.724,58.619 667.771,58.864 669.781,59.293 C669.846,59.309 669.917,59.333 669.998,59.365 C670.047,59.381 670.088,59.397 670.121,59.410 C670.477,59.554 670.787,59.791 671.056,60.124 C671.322,60.457 671.439,60.782 671.407,61.098 C671.386,61.270 671.345,61.430 671.289,61.579 C675.916,61.275 679.738,61.059 682.757,60.929 C683.631,58.179 684.501,55.427 685.388,52.681 C685.485,52.507 685.610,52.390 685.765,52.337 C685.917,52.281 686.059,52.283 686.189,52.347 C686.271,52.395 686.331,52.475 686.372,52.585 C686.412,52.696 686.415,52.816 686.383,52.941 C685.561,55.589 684.738,58.236 683.916,60.884 C684.341,60.867 684.782,60.849 685.170,60.837 C690.349,60.601 697.617,60.364 706.973,60.124 C707.881,60.108 708.221,60.236 707.993,60.505 C707.897,60.601 707.723,60.688 707.471,60.766 ZM670.591,111.914 L662.616,134.391 L678.302,134.391 L670.591,111.914 ZM636.322,53.871 C636.449,53.522 636.580,53.173 636.708,52.824 C637.436,50.840 638.157,48.843 638.869,46.829 C640.327,42.723 641.882,38.656 643.532,34.629 C645.346,30.286 647.021,25.876 648.559,21.404 C648.736,20.850 648.924,20.297 649.117,19.740 C650.039,17.156 650.841,14.544 651.520,11.905 C652.200,9.263 652.524,6.581 652.491,3.854 C652.507,3.393 652.418,2.949 652.224,2.523 C651.852,1.950 651.295,1.641 650.550,1.593 C649.886,1.577 649.231,1.689 648.581,1.926 C645.134,3.052 641.874,4.651 638.796,6.720 C635.721,8.789 632.817,10.965 630.079,13.247 C626.827,15.865 623.665,18.824 620.598,22.131 C617.531,25.436 613.754,29.881 609.271,35.460 C603.589,42.454 596.816,51.237 588.947,61.812 C588.898,62.132 588.841,62.449 588.778,62.766 C588.778,62.843 588.814,62.947 588.887,63.075 C588.961,63.200 589.053,63.311 589.167,63.408 C589.279,63.500 589.377,63.548 589.458,63.548 C589.537,63.564 589.627,63.580 589.725,63.597 C589.885,63.629 590.048,63.636 590.211,63.621 C590.875,63.541 591.546,63.493 592.226,63.477 C596.190,63.035 600.206,62.622 604.268,62.241 C614.160,61.290 623.806,60.521 633.211,59.935 C633.616,59.743 633.940,59.442 634.185,59.029 C634.443,58.603 634.660,58.158 634.840,57.698 C635.356,56.430 635.851,55.155 636.322,53.871 ZM555.708,138.559 C555.325,140.585 554.705,142.479 553.848,144.244 C552.992,146.010 551.766,147.672 550.172,149.233 C547.927,151.432 545.431,153.110 542.685,154.269 C539.936,155.427 536.760,156.005 533.157,156.005 C529.555,156.005 526.363,155.427 523.587,154.269 C520.811,153.110 518.301,151.432 516.055,149.233 C514.462,147.672 513.233,146.010 512.379,144.244 C511.520,142.479 510.916,140.585 510.563,138.559 C510.207,136.535 510.000,134.364 509.940,132.050 C509.883,129.736 509.853,127.245 509.853,124.585 C509.853,121.925 509.883,119.435 509.940,117.121 C510.000,114.806 510.207,112.636 510.563,110.612 C510.916,108.585 511.520,106.692 512.379,104.926 C513.233,103.160 514.462,101.498 516.055,99.935 C518.301,97.738 520.811,96.060 523.587,94.902 C526.363,93.743 529.555,93.166 533.157,93.166 C536.760,93.166 539.936,93.743 542.685,94.902 C545.431,96.060 547.927,97.738 550.172,99.935 C551.766,101.498 552.992,103.160 553.848,104.926 C554.705,106.692 555.325,108.585 555.708,110.612 C556.094,112.636 556.315,114.806 556.374,117.121 C556.431,119.435 556.461,121.925 556.461,124.585 C556.461,127.245 556.431,129.736 556.374,132.050 C556.315,134.364 556.094,136.535 555.708,138.559 ZM544.014,117.251 C543.924,115.312 543.761,113.706 543.525,112.433 C543.288,111.160 542.965,110.132 542.551,109.352 C542.138,108.572 541.635,107.863 541.045,107.227 C540.159,106.242 539.049,105.448 537.723,104.838 C536.393,104.231 534.870,103.927 533.157,103.927 C531.445,103.927 529.908,104.231 528.549,104.838 C527.190,105.448 526.069,106.242 525.183,107.227 C524.593,107.863 524.104,108.572 523.720,109.352 C523.337,110.132 523.027,111.160 522.790,112.433 C522.554,113.706 522.390,115.312 522.303,117.251 C522.214,119.189 522.170,121.634 522.170,124.585 C522.170,127.536 522.214,129.981 522.303,131.919 C522.390,133.859 522.554,135.464 522.790,136.734 C523.027,138.010 523.337,139.035 523.720,139.816 C524.104,140.599 524.593,141.307 525.183,141.944 C526.069,142.929 527.190,143.722 528.549,144.330 C529.908,144.937 531.445,145.241 533.157,145.241 C534.870,145.241 536.393,144.937 537.723,144.330 C539.049,143.722 540.159,142.929 541.045,141.944 C541.635,141.307 542.138,140.599 542.551,139.816 C542.965,139.035 543.288,138.010 543.525,136.734 C543.761,135.464 543.924,133.859 544.014,131.919 C544.101,129.981 544.145,127.536 544.145,124.585 C544.145,121.634 544.101,119.189 544.014,117.251 ZM550.325,77.890 C550.229,77.970 550.132,78.042 550.034,78.105 C549.240,78.470 548.449,78.819 547.655,79.152 C547.397,79.245 547.135,79.341 546.877,79.437 C546.635,79.517 546.401,79.602 546.173,79.698 C545.591,79.922 545.080,80.244 544.645,80.672 C544.289,81.038 543.932,81.395 543.576,81.743 C543.446,81.887 543.315,82.028 543.187,82.172 C542.475,82.934 541.673,83.591 540.784,84.145 C540.556,84.273 540.322,84.383 540.080,84.478 C539.773,84.574 539.482,84.532 539.204,84.348 C538.930,84.167 538.778,83.916 538.745,83.600 C538.745,83.551 538.745,83.496 538.745,83.432 C538.729,83.322 538.729,83.210 538.745,83.099 C538.778,82.830 538.832,82.577 538.913,82.337 C539.384,81.050 539.970,79.818 540.653,78.634 C539.282,79.093 537.951,79.653 536.659,80.316 C535.558,80.873 534.433,81.363 533.285,81.791 C532.717,81.996 532.135,82.172 531.537,82.313 C531.260,82.361 531.026,82.385 530.833,82.385 C530.767,82.385 530.710,82.393 530.661,82.409 C529.593,82.329 528.728,82.004 528.065,81.434 C527.660,81.101 527.312,80.713 527.021,80.268 C526.809,79.935 526.608,79.602 526.412,79.269 C526.268,79.000 526.113,78.739 525.952,78.486 C525.855,78.311 525.740,78.146 525.612,77.986 C525.580,77.938 525.547,77.898 525.514,77.866 C525.351,77.677 525.123,77.557 524.824,77.509 C524.522,77.464 524.269,77.509 524.057,77.652 C524.025,77.684 523.984,77.717 523.938,77.748 C523.823,77.813 523.725,77.882 523.644,77.962 C522.755,78.803 521.969,79.722 521.289,80.721 C521.047,81.101 520.805,81.474 520.561,81.839 C520.368,82.124 520.180,82.409 520.003,82.694 C519.435,83.567 518.804,84.391 518.108,85.168 C517.915,85.360 517.687,85.477 517.428,85.525 C517.301,85.557 517.170,85.541 517.040,85.477 C516.912,85.413 516.822,85.320 516.773,85.192 C516.659,84.955 516.626,84.707 516.675,84.454 C516.855,83.600 517.105,82.774 517.428,81.980 C517.657,81.442 517.883,80.904 518.108,80.364 C518.448,79.541 518.788,78.723 519.128,77.913 C519.226,77.709 519.315,77.503 519.397,77.296 C519.799,76.393 520.164,75.474 520.487,74.537 C520.618,74.124 520.781,73.730 520.974,73.349 C521.670,71.841 522.227,70.297 522.649,68.710 C522.746,68.297 522.923,67.911 523.185,67.546 C523.247,67.466 523.358,67.413 523.511,67.391 C523.665,67.368 523.791,67.378 523.889,67.426 C523.938,67.458 523.976,67.490 524.008,67.522 C524.041,67.554 524.065,67.586 524.081,67.615 C524.114,67.871 524.130,68.124 524.130,68.377 C524.114,68.553 524.065,68.718 523.984,68.877 C523.533,69.796 523.119,70.739 522.746,71.706 C522.584,72.118 522.423,72.523 522.260,72.920 C521.564,74.601 520.852,76.273 520.123,77.938 C519.492,79.365 518.943,80.816 518.473,82.292 C518.424,82.497 518.489,82.616 518.668,82.646 C518.717,82.646 518.761,82.635 518.802,82.611 C518.842,82.588 518.878,82.561 518.910,82.529 C519.816,81.277 520.724,80.007 521.629,78.723 C522.195,77.945 522.869,77.272 523.644,76.702 C523.938,76.497 524.245,76.329 524.568,76.201 C525.117,76.012 525.612,76.108 526.050,76.486 C526.292,76.726 526.510,76.995 526.705,77.296 C526.833,77.520 526.956,77.756 527.070,78.009 C527.132,78.169 527.198,78.318 527.263,78.462 C527.295,78.510 527.328,78.564 527.361,78.627 C527.521,78.960 527.700,79.285 527.894,79.602 C528.802,81.062 530.169,81.586 531.996,81.173 C532.369,81.093 532.733,80.974 533.089,80.816 C533.138,80.801 533.187,80.784 533.236,80.769 C534.789,80.167 536.319,79.501 537.826,78.771 C539.031,78.181 540.266,77.664 541.533,77.219 C541.617,77.095 541.693,76.966 541.779,76.843 C542.021,76.497 542.328,76.201 542.701,75.964 C542.897,75.852 543.111,75.794 543.345,75.786 C543.579,75.778 543.786,75.820 543.965,75.916 C544.514,76.297 545.034,76.718 545.518,77.176 C545.792,77.431 546.078,77.677 546.369,77.913 C546.659,78.121 546.991,78.177 547.364,78.081 C547.622,78.001 547.864,77.906 548.093,77.796 C548.318,77.684 548.552,77.573 548.797,77.464 C549.022,77.336 549.256,77.216 549.501,77.107 C549.661,77.027 549.833,76.979 550.009,76.963 C550.189,76.931 550.349,76.979 550.496,77.107 C550.578,77.187 550.613,77.301 550.605,77.450 C550.597,77.602 550.545,77.709 550.447,77.772 C550.398,77.820 550.357,77.860 550.325,77.890 ZM542.410,79.794 C541.812,79.602 541.358,79.746 541.051,80.222 C540.548,80.934 540.200,81.711 540.006,82.553 C540.006,82.616 540.015,82.670 540.031,82.718 C540.031,82.750 540.031,82.782 540.031,82.814 C540.047,82.830 540.064,82.854 540.080,82.885 C540.113,82.934 540.153,82.974 540.200,83.003 C540.363,83.083 540.526,83.075 540.686,82.979 C541.480,82.441 542.209,81.831 542.872,81.149 C542.905,81.117 542.929,81.077 542.945,81.030 C542.976,80.997 543.000,80.966 543.016,80.934 C543.114,80.793 543.149,80.625 543.128,80.436 C543.103,80.244 543.016,80.103 542.872,80.007 C542.725,79.927 542.571,79.858 542.410,79.794 ZM544.449,78.009 C544.368,77.945 544.264,77.898 544.134,77.866 C544.085,77.852 544.028,77.836 543.965,77.820 C543.900,77.836 543.835,77.852 543.769,77.866 C543.609,77.913 543.438,77.962 543.261,78.009 C543.065,78.057 542.951,78.169 542.921,78.342 C542.921,78.518 543.000,78.651 543.163,78.747 C543.552,78.984 543.957,79.008 544.376,78.819 C544.539,78.739 544.628,78.611 544.645,78.438 C544.661,78.262 544.596,78.121 544.449,78.009 ZM517.007,77.986 C514.693,78.811 512.434,79.762 510.234,80.840 C509.440,81.205 508.638,81.554 507.831,81.887 C506.939,82.252 506.009,82.505 505.038,82.646 C504.777,82.694 504.519,82.710 504.261,82.694 C503.241,82.553 502.648,82.004 502.488,81.054 C502.471,80.864 502.463,80.689 502.463,80.532 C502.463,80.483 502.463,80.436 502.463,80.387 C502.512,79.608 502.665,78.884 502.901,78.204 C501.505,78.968 500.159,79.812 498.869,80.744 C498.013,81.346 497.145,81.943 496.273,82.529 C495.982,82.702 495.671,82.870 495.348,83.027 C494.508,83.376 493.820,83.253 493.284,82.659 C492.751,82.066 492.338,81.426 492.047,80.744 C492.015,80.697 491.990,80.657 491.974,80.625 C491.974,80.612 491.966,80.595 491.949,80.579 C491.852,80.356 491.724,80.150 491.561,79.959 C491.449,79.834 491.305,79.732 491.136,79.663 C490.965,79.591 490.791,79.578 490.614,79.626 C490.177,79.738 489.796,79.935 489.473,80.222 C489.002,80.633 488.616,81.101 488.309,81.624 C488.096,81.943 487.895,82.268 487.700,82.601 C487.507,82.949 487.303,83.290 487.093,83.624 C486.946,83.812 486.778,83.988 486.582,84.145 L486.560,84.169 C486.413,84.297 486.242,84.321 486.049,84.241 C485.889,84.161 485.799,84.026 485.783,83.836 C485.767,83.725 485.767,83.639 485.783,83.575 C485.799,83.432 485.832,83.314 485.881,83.218 C485.927,83.123 485.951,83.067 485.951,83.051 C486.098,82.750 486.742,81.224 487.882,78.473 C489.024,75.722 490.275,72.654 491.634,69.269 C492.993,65.884 494.078,63.091 494.889,60.886 C495.696,58.603 496.555,56.033 497.461,53.181 C498.271,50.691 498.991,48.539 499.622,46.723 C500.253,44.907 500.682,43.969 500.908,43.905 C501.006,43.921 501.088,43.940 501.153,43.964 C501.218,43.988 501.281,44.023 501.346,44.070 C501.428,44.166 501.484,44.265 501.517,44.369 C501.550,44.473 501.566,44.571 501.566,44.664 C499.832,49.977 497.972,55.399 495.982,60.933 C493.763,67.101 491.503,73.077 489.206,78.867 C489.336,78.787 489.473,78.715 489.619,78.651 C489.943,78.462 490.283,78.311 490.639,78.199 C491.044,78.121 491.408,78.172 491.732,78.356 C492.055,78.537 492.322,78.803 492.531,79.152 C492.727,79.469 492.887,79.810 493.018,80.175 C493.083,80.316 493.140,80.460 493.189,80.601 C493.350,80.981 493.592,81.351 493.918,81.709 C494.241,82.066 494.644,82.148 495.130,81.956 C495.196,81.927 495.261,81.903 495.323,81.887 C495.503,81.807 495.671,81.719 495.835,81.624 C495.933,81.546 496.036,81.474 496.150,81.410 C496.781,80.997 497.390,80.571 497.972,80.127 C499.138,79.285 500.343,78.510 501.591,77.796 C501.784,77.684 501.985,77.565 502.197,77.440 C502.488,77.280 502.803,77.138 503.143,77.011 C503.245,76.981 503.351,76.968 503.458,76.963 C503.476,76.932 503.489,76.898 503.507,76.867 C503.589,76.758 503.676,76.662 503.774,76.582 C503.806,76.550 503.839,76.518 503.872,76.486 C503.937,76.409 504.032,76.369 504.163,76.369 C504.293,76.369 504.418,76.401 504.538,76.465 C504.660,76.526 504.736,76.598 504.769,76.678 C504.867,76.947 504.875,77.200 504.793,77.440 C504.666,77.692 504.527,77.938 504.380,78.177 C504.269,78.382 504.155,78.587 504.040,78.795 C503.750,79.349 503.643,79.935 503.725,80.555 C503.823,81.125 504.179,81.450 504.793,81.530 C505.052,81.546 505.313,81.530 505.571,81.482 C506.591,81.245 507.578,80.888 508.535,80.411 C511.156,79.208 513.810,78.066 516.499,76.987 C516.740,76.891 516.991,76.867 517.252,76.915 C517.445,76.963 517.567,77.075 517.616,77.248 C517.646,77.440 517.592,77.597 517.445,77.725 C517.314,77.836 517.170,77.921 517.007,77.986 ZM506.944,72.481 C506.822,72.550 506.697,72.579 506.566,72.563 C506.390,72.547 506.232,72.484 506.093,72.372 C505.955,72.262 505.870,72.126 505.838,71.969 C505.805,71.716 505.878,71.490 506.058,71.290 C506.235,71.093 506.460,70.995 506.737,70.995 C506.914,70.995 507.053,71.072 507.151,71.232 C507.164,71.280 507.181,71.322 507.197,71.362 C507.213,71.402 507.222,71.437 507.222,71.469 C507.222,71.722 507.205,71.969 507.173,72.206 C507.140,72.318 507.064,72.409 506.944,72.481 ZM486.112,78.057 C485.690,78.326 485.261,78.579 484.826,78.819 C484.810,78.835 484.793,78.851 484.777,78.867 C483.496,79.610 482.267,80.428 481.085,81.315 C480.228,81.919 479.532,82.678 478.996,83.600 C478.980,83.600 478.972,83.608 478.972,83.624 C478.665,84.225 478.284,84.787 477.833,85.312 C477.558,85.645 477.235,85.922 476.862,86.143 C476.699,86.206 476.536,86.263 476.375,86.310 C476.180,86.327 476.019,86.279 475.889,86.167 C475.793,86.087 475.731,85.977 475.706,85.834 C475.682,85.692 475.704,85.565 475.769,85.453 C475.802,85.392 475.840,85.328 475.889,85.264 C475.970,85.104 476.068,84.955 476.180,84.811 C476.780,84.065 477.387,83.336 478.001,82.624 C478.570,81.956 478.955,81.197 479.168,80.340 C479.410,79.453 479.241,78.651 478.656,77.938 C478.382,77.605 478.083,77.304 477.759,77.035 C477.759,77.019 477.751,77.011 477.735,77.011 C477.558,76.851 477.370,76.694 477.177,76.534 C476.965,76.361 476.764,76.185 476.568,76.012 C476.228,75.695 476.044,75.306 476.011,74.846 C476.027,74.798 476.035,74.752 476.035,74.704 C476.052,74.592 476.085,74.481 476.134,74.372 C476.228,74.132 476.367,73.919 476.544,73.730 C477.177,73.000 477.961,72.476 478.901,72.159 C479.304,72.002 479.733,71.962 480.187,72.039 C480.446,72.102 480.641,72.255 480.769,72.491 C480.900,72.728 480.916,72.976 480.818,73.229 C480.786,73.309 480.745,73.389 480.699,73.466 C480.470,73.815 480.179,73.935 479.823,73.823 C479.709,73.775 479.614,73.730 479.532,73.682 C479.385,73.602 479.249,73.538 479.119,73.490 C478.939,73.442 478.771,73.450 478.607,73.514 C478.189,73.658 477.849,73.919 477.588,74.300 C477.460,74.473 477.400,74.675 477.406,74.907 C477.417,75.136 477.493,75.330 477.637,75.488 C477.702,75.551 477.767,75.623 477.833,75.703 C478.058,75.956 478.292,76.193 478.537,76.417 C479.589,77.288 480.171,78.398 480.285,79.746 C480.285,79.826 480.321,79.897 480.394,79.959 C480.467,80.023 480.546,80.068 480.636,80.090 C480.726,80.113 480.802,80.103 480.867,80.055 C480.949,80.023 481.027,79.983 481.109,79.935 C481.256,79.858 481.403,79.770 481.547,79.674 C481.772,79.533 481.993,79.381 482.202,79.221 C482.493,79.032 482.776,78.843 483.053,78.651 C483.782,78.177 484.519,77.717 485.261,77.272 C485.489,77.147 485.731,77.058 485.989,77.011 C486.185,76.979 486.337,77.043 486.452,77.200 C486.550,77.376 486.550,77.533 486.452,77.677 C486.370,77.836 486.259,77.962 486.112,78.057 ZM476.906,77.131 C477.004,77.288 476.995,77.448 476.881,77.605 C476.832,77.684 476.778,77.748 476.712,77.796 C475.337,78.715 473.895,79.533 472.389,80.244 C471.595,80.625 470.772,80.928 469.912,81.149 C469.217,81.322 468.520,81.315 467.824,81.125 C467.792,81.109 467.759,81.101 467.729,81.101 C467.501,81.038 467.283,80.966 467.071,80.888 C466.391,80.617 465.891,80.158 465.567,79.509 C465.486,79.317 465.421,79.112 465.372,78.888 C465.307,78.603 465.187,78.334 465.008,78.081 C464.896,77.938 464.741,77.898 464.548,77.962 C464.385,78.009 464.238,78.089 464.110,78.199 C463.382,78.851 462.726,79.549 462.144,80.292 C461.318,81.338 460.429,82.313 459.472,83.218 C459.311,83.392 459.140,83.567 458.963,83.740 C458.816,83.869 458.664,83.988 458.501,84.097 C458.436,84.130 458.379,84.161 458.330,84.193 C458.186,84.289 458.012,84.332 457.808,84.324 C457.607,84.316 457.449,84.273 457.335,84.193 C457.028,83.956 456.883,83.655 456.900,83.290 C456.900,83.115 456.921,82.949 456.970,82.790 L456.995,82.790 C457.060,82.537 457.150,82.300 457.261,82.076 C458.444,79.935 459.901,78.001 461.633,76.273 C462.022,75.908 462.435,75.591 462.870,75.322 C463.471,74.910 464.143,74.744 464.888,74.822 C465.290,74.886 465.695,74.957 466.100,75.037 C466.133,75.037 466.158,75.037 466.174,75.037 C466.383,75.085 466.554,75.200 466.685,75.381 C466.813,75.565 466.870,75.775 466.854,76.012 C466.805,76.281 466.764,76.542 466.731,76.798 C466.715,76.875 466.699,76.955 466.685,77.035 C466.669,77.131 466.652,77.224 466.636,77.319 C466.603,77.479 466.579,77.637 466.563,77.796 C466.497,78.398 466.652,78.920 467.025,79.365 C467.395,79.810 467.889,80.071 468.504,80.150 C468.537,80.150 468.602,80.158 468.700,80.175 C468.749,80.175 468.819,80.183 468.917,80.199 C468.999,80.183 469.089,80.175 469.184,80.175 C469.461,80.143 469.752,80.095 470.059,80.031 C470.997,79.778 471.889,79.413 472.729,78.936 C473.102,78.731 473.466,78.518 473.822,78.295 C474.211,78.073 474.608,77.852 475.013,77.629 C475.046,77.613 475.076,77.589 475.108,77.557 C475.530,77.304 475.976,77.115 476.446,76.987 C476.639,76.939 476.794,76.987 476.906,77.131 ZM463.528,76.643 C463.414,76.523 463.259,76.473 463.066,76.486 C463.034,76.502 462.993,76.518 462.944,76.534 C462.816,76.582 462.661,76.654 462.484,76.750 C461.723,77.336 461.076,78.033 460.540,78.843 C459.877,79.762 459.238,80.689 458.623,81.624 C458.509,81.799 458.411,81.988 458.330,82.196 C458.316,82.244 458.300,82.292 458.283,82.337 C458.186,82.545 458.243,82.678 458.452,82.742 C458.485,82.742 458.526,82.739 458.575,82.731 C458.623,82.723 458.664,82.702 458.694,82.670 C459.406,82.148 460.032,81.546 460.565,80.864 C461.326,79.911 462.128,78.992 462.968,78.105 C463.148,77.913 463.308,77.709 463.455,77.487 C463.504,77.376 463.550,77.264 463.599,77.155 C463.616,77.107 463.632,77.058 463.648,77.011 C463.681,76.883 463.640,76.761 463.528,76.643 ZM458.539,78.057 C458.118,78.326 457.688,78.579 457.253,78.819 C457.237,78.835 457.221,78.851 457.204,78.867 C455.924,79.610 454.695,80.428 453.512,81.315 C452.655,81.919 451.959,82.678 451.424,83.600 C451.407,83.600 451.399,83.608 451.399,83.624 C451.092,84.225 450.711,84.787 450.260,85.312 C449.985,85.645 449.662,85.922 449.290,86.143 C449.126,86.206 448.963,86.263 448.803,86.310 C448.607,86.327 448.446,86.279 448.316,86.167 C448.221,86.087 448.158,85.977 448.134,85.834 C448.109,85.692 448.131,85.565 448.196,85.453 C448.229,85.392 448.267,85.328 448.316,85.264 C448.398,85.104 448.495,84.955 448.607,84.811 C449.208,84.065 449.814,83.336 450.428,82.624 C450.997,81.956 451.383,81.197 451.595,80.340 C451.837,79.453 451.669,78.651 451.084,77.938 C450.809,77.605 450.510,77.304 450.187,77.035 C450.187,77.019 450.179,77.011 450.162,77.011 C449.985,76.851 449.798,76.694 449.605,76.534 C449.393,76.361 449.191,76.185 448.996,76.012 C448.656,75.695 448.471,75.306 448.438,74.846 C448.455,74.798 448.463,74.752 448.463,74.704 C448.479,74.592 448.512,74.481 448.561,74.372 C448.656,74.132 448.795,73.919 448.971,73.730 C449.605,73.000 450.388,72.476 451.329,72.159 C451.731,72.002 452.160,71.962 452.615,72.039 C452.873,72.102 453.069,72.255 453.196,72.491 C453.327,72.728 453.343,72.976 453.246,73.229 C453.213,73.309 453.172,73.389 453.126,73.466 C452.897,73.815 452.607,73.935 452.250,73.823 C452.136,73.775 452.041,73.730 451.959,73.682 C451.812,73.602 451.677,73.538 451.546,73.490 C451.367,73.442 451.198,73.450 451.035,73.514 C450.616,73.658 450.277,73.919 450.015,74.300 C449.887,74.473 449.828,74.675 449.833,74.907 C449.844,75.136 449.920,75.330 450.064,75.488 C450.130,75.551 450.195,75.623 450.260,75.703 C450.486,75.956 450.720,76.193 450.964,76.417 C452.017,77.288 452.598,78.398 452.713,79.746 C452.713,79.826 452.748,79.897 452.821,79.959 C452.895,80.023 452.974,80.068 453.063,80.090 C453.153,80.113 453.229,80.103 453.294,80.055 C453.376,80.023 453.455,79.983 453.536,79.935 C453.683,79.858 453.830,79.770 453.974,79.674 C454.200,79.533 454.420,79.381 454.629,79.221 C454.920,79.032 455.203,78.843 455.480,78.651 C456.209,78.177 456.946,77.717 457.688,77.272 C457.917,77.147 458.158,77.058 458.417,77.011 C458.613,76.979 458.765,77.043 458.879,77.200 C458.977,77.376 458.977,77.533 458.879,77.677 C458.797,77.836 458.686,77.962 458.539,78.057 ZM449.455,77.011 C449.648,77.027 449.771,77.131 449.820,77.319 C449.820,77.352 449.820,77.392 449.820,77.440 C449.820,77.487 449.812,77.525 449.795,77.557 C449.488,78.001 449.083,78.326 448.580,78.531 C447.400,79.072 446.193,79.589 444.963,80.079 C444.558,80.238 444.137,80.340 443.699,80.387 C442.761,80.499 441.967,80.207 441.320,79.509 C441.160,79.317 440.997,79.112 440.836,78.888 C440.689,78.683 440.534,78.486 440.374,78.295 C440.325,78.246 440.252,78.215 440.157,78.199 C440.059,78.185 439.969,78.185 439.887,78.199 C439.710,78.215 439.547,78.278 439.403,78.390 C438.949,78.787 438.503,79.200 438.068,79.626 C437.759,79.943 437.451,80.260 437.144,80.579 C436.788,80.944 436.424,81.306 436.051,81.671 C435.793,81.911 435.494,82.084 435.154,82.196 C434.879,82.276 434.624,82.247 434.390,82.113 C434.153,81.978 434.012,81.775 433.963,81.506 C433.963,81.458 433.955,81.402 433.938,81.338 C433.938,81.306 433.938,81.283 433.938,81.266 C433.938,81.205 433.938,81.149 433.938,81.101 C433.922,80.974 433.930,80.856 433.963,80.744 C434.335,79.064 434.863,77.423 435.543,75.820 C435.621,75.631 435.744,75.458 435.907,75.298 C435.939,75.266 435.961,75.235 435.978,75.203 C436.092,75.093 436.249,75.021 436.453,74.990 C436.655,74.957 436.820,74.982 436.951,75.061 C437.193,75.218 437.315,75.442 437.315,75.727 C437.315,75.743 437.315,75.767 437.315,75.796 C437.315,75.876 437.307,75.956 437.291,76.036 C437.274,76.116 437.242,76.169 437.193,76.201 C437.160,76.233 437.120,76.247 437.071,76.238 C437.024,76.230 436.983,76.225 436.951,76.225 C436.755,76.193 436.554,76.356 436.342,76.712 C436.132,77.069 435.934,77.503 435.749,78.009 C435.562,78.518 435.412,78.984 435.298,79.413 C435.186,79.842 435.138,80.127 435.154,80.268 C435.170,80.332 435.189,80.385 435.213,80.422 C435.238,80.462 435.265,80.499 435.298,80.532 C435.347,80.579 435.412,80.601 435.494,80.601 C435.575,80.617 435.654,80.601 435.736,80.555 C436.027,80.364 436.271,80.127 436.464,79.842 C437.111,79.016 437.824,78.254 438.601,77.557 C438.941,77.272 439.289,77.011 439.645,76.774 C439.776,76.710 439.920,76.654 440.083,76.606 C440.100,76.606 440.116,76.598 440.132,76.582 C440.341,76.534 440.564,76.550 440.798,76.630 C441.032,76.710 441.206,76.835 441.320,77.011 C441.418,77.187 441.524,77.376 441.635,77.580 C441.766,77.836 441.910,78.097 442.073,78.366 C442.430,78.904 442.938,79.184 443.604,79.200 C444.153,79.200 444.664,79.088 445.132,78.867 C445.586,78.659 446.040,78.446 446.492,78.223 C446.831,78.050 447.171,77.882 447.511,77.725 C447.981,77.503 448.460,77.288 448.944,77.083 C449.107,77.019 449.276,76.995 449.455,77.011 ZM438.329,48.222 C436.856,51.876 435.377,55.376 433.887,58.720 C432.266,62.337 431.029,65.301 430.172,67.615 C428.778,71.437 427.144,75.402 425.268,79.509 C423.389,83.615 422.005,86.579 421.113,88.404 C420.887,88.894 420.741,89.203 420.678,89.331 C419.844,91.149 419.064,92.841 418.337,94.408 C420.939,93.584 423.855,93.166 427.089,93.166 C431.461,93.166 435.271,93.717 438.520,94.814 C441.769,95.914 444.752,97.765 447.470,100.369 L439.673,107.919 C437.663,106.068 435.521,104.897 433.247,104.404 C430.975,103.914 428.802,103.666 426.736,103.666 C423.427,103.666 420.974,104.436 419.381,105.967 C417.785,107.501 416.989,109.339 416.989,111.480 C416.989,112.289 417.135,113.070 417.432,113.823 C417.725,114.574 418.198,115.269 418.848,115.906 C419.498,116.484 420.311,116.990 421.287,117.424 C422.261,117.858 423.397,118.162 424.697,118.335 L432.141,119.376 C435.034,119.783 437.427,120.375 439.319,121.155 C441.209,121.938 442.832,122.937 444.191,124.151 C445.904,125.712 447.144,127.595 447.914,129.791 C448.680,131.992 449.066,134.479 449.066,137.256 C449.066,140.266 448.460,142.929 447.250,145.241 C446.038,147.558 444.382,149.510 442.288,151.099 C440.189,152.692 437.723,153.906 434.887,154.745 C432.051,155.584 428.979,156.005 425.673,156.005 C420.887,156.005 416.635,155.411 412.913,154.223 C409.191,153.038 405.765,150.913 402.632,147.845 L410.607,140.034 C412.616,142.002 414.919,143.363 417.519,144.114 C420.118,144.865 422.894,145.241 425.850,145.241 C429.512,145.241 432.288,144.591 434.177,143.288 C436.070,141.986 437.013,140.093 437.013,137.603 C437.013,135.347 436.364,133.611 435.064,132.396 C434.414,131.818 433.691,131.368 432.894,131.052 C432.098,130.734 430.959,130.458 429.482,130.226 L421.861,129.184 C416.485,128.433 412.410,126.726 409.634,124.063 C409.532,123.964 409.437,123.860 409.339,123.758 C409.311,123.912 409.306,124.064 409.240,124.221 C409.128,124.458 408.989,124.689 408.829,124.910 C408.568,125.259 408.220,125.408 407.785,125.363 C407.331,125.315 407.024,125.091 406.861,124.697 C406.700,124.316 406.619,123.928 406.619,123.531 C406.619,122.865 406.676,122.207 406.787,121.557 C406.855,121.214 406.942,120.875 407.015,120.533 C405.751,118.120 405.115,115.250 405.115,111.914 C405.115,109.136 405.615,106.604 406.621,104.318 C407.624,102.034 409.071,100.066 410.963,98.417 C412.625,96.965 414.608,95.795 416.912,94.904 C417.361,93.900 417.776,92.981 418.152,92.162 C422.166,83.187 425.213,76.255 427.293,71.362 C429.373,66.470 430.980,62.646 432.114,59.887 C433.101,57.477 434.055,55.186 434.980,53.013 C435.725,51.381 436.619,49.205 437.663,46.486 C438.707,43.767 439.569,41.059 440.249,38.363 C440.929,35.668 441.081,33.527 440.708,31.942 C440.273,31.101 439.403,30.962 438.098,31.524 C436.796,32.089 435.298,33.039 433.607,34.379 C431.915,35.719 430.265,37.138 428.653,38.638 C427.043,40.134 425.711,41.407 424.659,42.454 C424.044,43.072 423.598,43.508 423.324,43.762 C408.544,59.125 396.259,76.217 386.466,95.038 C385.979,96.036 385.476,97.027 384.960,98.012 C383.972,99.882 383.081,101.794 382.290,103.743 C382.208,103.996 382.112,104.243 382.029,104.495 L401.039,155.483 L388.190,155.483 L384.467,144.548 L362.050,144.548 L358.241,155.483 L345.391,155.483 L368.341,93.688 L377.999,93.688 L381.157,102.158 C382.672,97.809 384.190,93.461 385.762,89.128 C387.817,83.461 390.017,77.852 392.366,72.302 C392.787,71.032 393.443,69.194 394.332,66.784 C395.384,63.945 396.545,60.715 397.818,57.093 C399.087,53.468 400.256,49.865 401.325,46.283 C402.393,42.699 403.155,39.551 403.609,36.840 C404.060,34.129 403.995,32.267 403.413,31.253 C403.073,30.728 402.624,30.478 402.064,30.502 C401.507,30.526 400.993,30.688 400.523,30.989 C396.284,33.908 392.309,37.159 388.603,40.741 C386.740,42.614 384.846,44.475 382.921,46.331 C379.228,49.850 375.653,53.477 372.189,57.210 C368.722,60.944 365.663,64.960 363.010,69.259 C361.990,71.730 360.962,74.204 359.927,76.678 C359.731,77.091 359.546,77.509 359.366,77.938 C359.108,78.619 358.801,79.269 358.445,79.889 C358.445,79.906 358.453,79.922 358.469,79.935 C356.802,85.027 354.823,90.372 352.531,95.978 C350.242,101.583 347.582,107.373 344.556,113.352 C340.897,120.471 337.191,126.963 333.433,132.830 C332.851,133.733 332.248,134.367 331.625,134.732 C331.002,135.097 330.497,135.184 330.108,134.993 C329.915,134.900 329.768,134.745 329.670,134.529 C329.575,134.316 329.510,134.106 329.477,133.901 C329.445,133.693 329.428,133.544 329.428,133.448 C329.670,130.324 330.301,127.272 331.323,124.292 C332.343,121.310 333.490,118.377 334.771,115.491 C335.190,114.476 335.611,113.469 336.032,112.471 C340.614,101.563 346.109,91.107 352.520,81.101 C353.978,78.787 355.538,76.518 357.205,74.300 C358.404,72.715 359.562,71.096 360.677,69.447 C361.794,67.799 362.781,66.079 363.641,64.286 C366.392,57.596 369.027,50.848 371.544,44.047 C374.062,37.245 376.234,30.355 378.064,23.380 C378.160,23.080 378.358,22.837 378.657,22.653 C378.959,22.472 379.250,22.408 379.533,22.464 C379.815,22.520 379.981,22.760 380.030,23.189 C379.399,25.583 378.589,27.945 377.602,30.278 C376.971,31.815 376.395,33.354 375.878,34.890 C375.003,37.301 374.155,39.718 373.328,42.145 C371.743,46.965 369.978,51.730 368.034,56.438 C366.949,58.944 366.368,60.502 366.286,61.112 C366.207,61.722 366.482,61.706 367.112,61.064 C367.743,60.422 368.570,59.458 369.590,58.174 C369.962,57.730 370.343,57.272 370.731,56.795 C372.868,54.369 375.093,52.014 377.409,49.732 C379.723,47.447 382.061,45.189 384.424,42.952 C386.594,40.923 388.731,38.861 390.835,36.771 C392.390,35.327 394.016,33.964 395.716,32.678 C396.186,32.315 396.646,31.950 397.099,31.585 C397.423,31.362 397.755,31.133 398.095,30.896 C398.758,30.403 399.438,29.953 400.137,29.540 C400.830,29.127 401.591,28.850 402.418,28.707 C402.855,28.787 403.236,28.890 403.560,29.016 C403.883,29.143 404.215,29.325 404.555,29.564 C405.428,30.294 405.789,31.815 405.634,34.129 C405.482,36.446 404.985,39.234 404.142,42.502 C403.299,45.767 402.276,49.199 401.069,52.800 C399.865,56.398 398.647,59.852 397.415,63.157 C396.186,66.462 395.109,69.304 394.187,71.684 C391.044,79.802 388.342,86.723 386.077,92.446 C390.479,84.851 395.142,77.399 400.063,70.089 C404.985,62.781 410.414,55.852 416.355,49.303 C416.986,48.574 418.139,47.293 419.816,45.463 C421.491,43.631 423.446,41.620 425.678,39.434 C427.913,37.245 430.156,35.245 432.405,33.428 C434.656,31.612 436.663,30.347 438.427,29.633 C440.192,28.920 441.454,29.127 442.215,30.254 C442.718,32.203 442.563,34.771 441.752,37.958 C440.945,41.146 439.803,44.566 438.329,48.222 ZM373.480,111.914 L365.506,134.391 L381.191,134.391 L373.480,111.914 ZM356.794,77.058 C353.183,82.401 349.814,87.879 346.693,93.493 C346.416,94.047 346.133,94.595 345.842,95.134 C342.800,100.889 339.934,106.747 337.248,112.710 C334.559,118.670 332.471,124.814 330.981,131.142 C330.918,131.395 330.910,131.664 330.959,131.949 C331.005,132.236 331.125,132.444 331.310,132.580 C331.495,132.716 331.750,132.671 332.074,132.450 C336.315,125.440 340.516,117.768 344.676,109.427 C349.888,98.819 354.228,88.806 357.691,79.389 C357.852,78.912 358.031,78.438 358.224,77.962 C358.678,76.963 358.945,75.916 359.026,74.822 C358.105,75.410 357.360,76.153 356.794,77.058 ZM359.075,74.752 C359.448,74.308 359.698,73.807 359.829,73.253 C359.456,73.698 359.206,74.196 359.075,74.752 ZM305.782,93.688 L318.098,93.688 L318.098,155.483 L305.782,155.483 L305.782,93.688 ZM255.628,117.555 L255.628,155.483 L243.311,155.483 L243.311,93.688 L254.299,93.688 L279.289,131.528 L279.289,93.688 L291.605,93.688 L291.605,155.483 L280.618,155.483 L255.628,117.555 ZM216.816,119.464 L204.765,142.897 L196.435,142.897 L184.294,119.464 L184.294,155.483 L171.978,155.483 L171.978,93.688 L184.118,93.688 L200.600,127.102 L216.993,93.688 L229.132,93.688 L229.132,155.483 L216.816,155.483 L216.816,119.464 ZM151.999,150.058 C149.900,151.938 147.448,153.400 144.644,154.442 C141.839,155.483 138.810,156.005 135.560,156.005 C132.311,156.005 129.283,155.483 126.479,154.442 C123.673,153.400 121.221,151.938 119.125,150.058 C117.026,148.178 115.373,145.906 114.163,143.246 C112.950,140.585 112.347,137.603 112.347,134.306 L112.347,93.688 L124.663,93.688 L124.663,133.872 C124.663,137.459 125.637,140.250 127.586,142.247 C129.535,144.244 132.195,145.241 135.560,145.241 C138.929,145.241 141.602,144.244 143.581,142.247 C145.558,140.250 146.548,137.459 146.548,133.872 L146.548,93.688 L158.777,93.688 L158.777,134.306 C158.777,137.603 158.171,140.585 156.961,143.246 C155.748,145.906 154.096,148.178 151.999,150.058 ZM62.900,93.688 L75.217,93.688 L75.217,144.722 L103.839,144.722 L103.839,155.483 L62.900,155.483 L62.900,93.688 ZM39.066,144.548 L16.648,144.548 L12.839,155.483 L-0.011,155.483 L22.940,93.688 L32.598,93.688 L55.638,155.483 L42.788,155.483 L39.066,144.548 ZM28.078,111.914 L20.104,134.391 L35.790,134.391 L28.078,111.914 ZM469.355,144.114 C471.954,144.865 474.731,145.241 477.686,145.241 C481.348,145.241 484.124,144.591 486.014,143.288 C487.906,141.986 488.850,140.093 488.850,137.603 C488.850,135.347 488.200,133.611 486.900,132.396 C486.250,131.818 485.527,131.368 484.731,131.052 C483.934,130.734 482.795,130.458 481.318,130.226 L473.697,129.184 C468.322,128.433 464.246,126.726 461.470,124.063 C458.458,121.112 456.951,117.064 456.951,111.914 C456.951,109.136 457.452,106.604 458.458,104.318 C459.461,102.034 460.907,100.066 462.800,98.417 C464.689,96.766 466.992,95.480 469.711,94.553 C472.428,93.629 475.500,93.166 478.926,93.166 C483.298,93.166 487.107,93.717 490.356,94.814 C493.605,95.914 496.588,97.765 499.307,100.369 L491.509,107.919 C489.499,106.068 487.357,104.897 485.084,104.404 C482.811,103.914 480.639,103.666 478.572,103.666 C475.263,103.666 472.811,104.436 471.217,105.967 C469.622,107.501 468.825,109.339 468.825,111.480 C468.825,112.289 468.972,113.070 469.268,113.823 C469.562,114.574 470.035,115.269 470.684,115.906 C471.334,116.484 472.147,116.990 473.123,117.424 C474.097,117.858 475.233,118.162 476.533,118.335 L483.977,119.376 C486.870,119.783 489.263,120.375 491.156,121.155 C493.045,121.938 494.668,122.937 496.028,124.151 C497.741,125.712 498.980,127.595 499.750,129.791 C500.517,131.992 500.903,134.479 500.903,137.256 C500.903,140.266 500.296,142.929 499.087,145.241 C497.874,147.558 496.218,149.510 494.125,151.099 C492.026,152.692 489.559,153.906 486.724,154.745 C483.888,155.584 480.815,156.005 477.509,156.005 C472.724,156.005 468.471,155.411 464.749,154.223 C461.027,153.038 457.601,150.913 454.469,147.845 L462.444,140.034 C464.453,142.002 466.756,143.363 469.355,144.114 ZM567.095,110.612 C567.448,108.585 568.052,106.692 568.911,104.926 C569.765,103.160 570.994,101.498 572.587,99.935 C574.833,97.738 577.356,96.060 580.165,94.902 C582.968,93.743 586.114,93.166 589.602,93.166 C592.555,93.166 595.318,93.570 597.887,94.380 C600.456,95.192 602.759,96.420 604.799,98.068 C606.835,99.719 608.548,101.757 609.937,104.188 C611.324,106.620 612.286,109.453 612.816,112.694 L600.323,112.694 C599.673,110.207 598.520,108.124 596.867,106.444 C595.211,104.766 592.821,103.927 589.689,103.927 C587.976,103.927 586.457,104.218 585.127,104.795 C583.797,105.376 582.691,106.156 581.804,107.139 C581.212,107.775 580.709,108.484 580.298,109.267 C579.882,110.047 579.559,111.075 579.322,112.345 C579.085,113.621 578.922,115.240 578.836,117.209 C578.746,119.174 578.702,121.634 578.702,124.585 C578.702,127.536 578.746,129.997 578.836,131.962 C578.922,133.930 579.085,135.549 579.322,136.822 C579.559,138.095 579.882,139.123 580.298,139.903 C580.709,140.684 581.212,141.395 581.804,142.029 C582.691,143.014 583.797,143.795 585.127,144.372 C586.457,144.953 587.976,145.241 589.689,145.241 C592.821,145.241 595.211,144.404 596.867,142.724 C598.520,141.046 599.673,138.963 600.323,136.476 L612.816,136.476 C612.286,139.717 611.324,142.551 609.937,144.983 C608.548,147.411 606.835,149.451 604.799,151.099 C602.759,152.748 600.456,153.978 597.887,154.788 C595.318,155.597 592.555,156.005 589.602,156.005 C586.114,156.005 582.968,155.427 580.165,154.269 C577.356,153.110 574.833,151.432 572.587,149.233 C570.994,147.672 569.765,146.010 568.911,144.244 C568.052,142.479 567.448,140.585 567.095,138.559 C566.739,136.535 566.532,134.364 566.472,132.050 C566.415,129.736 566.386,127.245 566.386,124.585 C566.386,121.925 566.415,119.435 566.472,117.121 C566.532,114.806 566.739,112.636 567.095,110.612 ZM780.555,110.612 C780.909,108.585 781.512,106.692 782.371,104.926 C783.225,103.160 784.454,101.498 786.048,99.935 C788.293,97.738 790.803,96.060 793.579,94.902 C796.355,93.743 799.547,93.166 803.149,93.166 C806.752,93.166 809.928,93.743 812.677,94.902 C815.423,96.060 817.919,97.738 820.165,99.935 C821.758,101.498 822.984,103.160 823.841,104.926 C824.697,106.692 825.317,108.585 825.700,110.612 C826.086,112.636 826.307,114.806 826.367,117.121 C826.424,119.435 826.454,121.925 826.454,124.585 C826.454,127.245 826.424,129.736 826.367,132.050 C826.307,134.364 826.086,136.535 825.700,138.559 C825.317,140.585 824.697,142.479 823.841,144.244 C822.984,146.010 821.758,147.672 820.165,149.233 C817.919,151.432 815.423,153.110 812.677,154.269 C809.928,155.427 806.752,156.005 803.149,156.005 C799.547,156.005 796.355,155.427 793.579,154.269 C790.803,153.110 788.293,151.432 786.048,149.233 C784.454,147.672 783.225,146.010 782.371,144.244 C781.512,142.479 780.909,140.585 780.555,138.559 C780.199,136.535 779.993,134.364 779.933,132.050 C779.876,129.736 779.846,127.245 779.846,124.585 C779.846,121.925 779.876,119.435 779.933,117.121 C779.993,114.806 780.199,112.636 780.555,110.612 ZM792.296,131.919 C792.383,133.859 792.546,135.464 792.782,136.734 C793.019,138.010 793.329,139.035 793.712,139.816 C794.096,140.599 794.585,141.307 795.175,141.944 C796.061,142.929 797.182,143.722 798.541,144.330 C799.900,144.937 801.437,145.241 803.149,145.241 C804.863,145.241 806.385,144.937 807.715,144.330 C809.041,143.722 810.151,142.929 811.037,141.944 C811.627,141.307 812.130,140.599 812.544,139.816 C812.957,139.035 813.280,138.010 813.517,136.734 C813.753,135.464 813.917,133.859 814.006,131.919 C814.093,129.981 814.137,127.536 814.137,124.585 C814.137,121.634 814.093,119.189 814.006,117.251 C813.917,115.312 813.753,113.706 813.517,112.433 C813.280,111.160 812.957,110.132 812.544,109.352 C812.130,108.572 811.627,107.863 811.037,107.227 C810.151,106.242 809.041,105.448 807.715,104.838 C806.385,104.231 804.863,103.927 803.149,103.927 C801.437,103.927 799.900,104.231 798.541,104.838 C797.182,105.448 796.061,106.242 795.175,107.227 C794.585,107.863 794.096,108.572 793.712,109.352 C793.329,110.132 793.019,111.160 792.782,112.433 C792.546,113.706 792.383,115.312 792.296,117.251 C792.206,119.189 792.162,121.634 792.162,124.585 C792.162,127.536 792.206,129.981 792.296,131.919 Z"/>
</svg>