<svg 
 xmlns="http://www.w3.org/2000/svg"
 xmlns:xlink="http://www.w3.org/1999/xlink"
 width="59px" height="446px">
<path fill-rule="evenodd"  fill="rgb(0, 0, 0)"
 d="M57.102,160.852 C55.749,160.852 54.977,160.005 53.689,158.509 C52.594,157.274 49.762,155.648 47.959,155.064 C47.315,154.869 47.121,154.543 47.121,154.347 C47.121,153.827 48.731,153.503 49.505,153.503 C57.423,153.503 58.711,157.730 58.711,158.900 C58.711,159.746 58.196,160.852 57.102,160.852 ZM55.299,98.294 C54.527,98.294 51.048,97.514 50.340,97.383 C48.152,97.059 41.714,96.928 41.585,96.928 C39.654,96.928 39.654,97.383 39.461,101.156 C39.203,107.332 38.495,114.811 32.636,122.093 C29.737,125.671 26.455,127.945 25.940,127.945 C25.747,127.945 25.553,127.816 25.553,127.556 C25.553,127.492 28.772,123.330 29.287,122.484 C34.375,114.876 35.533,107.592 35.533,99.204 C35.533,97.123 34.502,97.123 33.601,97.123 C31.219,97.123 26.584,97.450 25.940,97.774 C25.102,98.229 25.102,98.489 25.102,101.285 C25.102,102.715 25.490,109.024 25.490,110.259 C25.490,113.381 25.166,114.551 24.265,114.551 C22.721,114.551 20.854,110.454 20.854,109.349 C20.854,108.698 21.433,102.455 21.433,101.805 C21.433,98.685 21.046,98.294 19.953,98.294 C19.179,98.294 15.381,98.880 11.712,99.855 C11.325,99.986 9.843,100.570 9.458,100.570 C8.684,100.570 3.084,97.709 3.084,95.173 C3.084,94.783 3.341,94.587 3.535,94.587 C3.856,94.587 5.208,94.914 5.465,94.978 C6.432,95.107 10.166,95.562 11.004,95.562 C12.290,95.562 17.892,95.173 19.051,95.173 C20.274,95.107 20.982,94.914 20.982,93.352 C20.982,91.401 20.595,87.761 19.566,86.135 C19.372,85.875 18.343,84.769 18.343,84.509 C18.343,84.054 20.274,83.859 20.595,83.859 C22.077,83.859 26.391,86.915 26.391,88.216 C26.391,88.671 25.296,90.557 25.232,90.945 C24.909,91.662 24.975,92.637 24.975,93.288 C24.975,94.263 25.617,94.652 26.519,94.652 C28.194,94.652 32.249,94.392 33.858,94.263 C35.276,94.132 35.276,93.026 35.276,92.378 C35.276,90.166 35.276,83.403 34.825,81.778 C34.632,81.192 32.829,78.591 32.829,78.460 C32.829,78.200 33.537,77.812 34.309,77.812 C35.597,77.812 37.528,78.787 39.461,79.762 C40.105,80.088 41.070,80.541 41.070,81.323 C41.070,81.778 40.105,83.339 39.975,83.663 C39.331,85.158 39.331,89.191 39.331,90.945 C39.331,93.026 39.331,93.677 40.877,93.677 C41.198,93.677 43.709,93.481 45.254,92.962 C47.378,92.182 47.572,92.118 48.473,92.118 C51.692,92.118 57.359,93.222 57.359,96.408 C57.359,97.774 56.200,98.294 55.299,98.294 ZM49.181,39.508 C46.994,39.508 46.736,37.883 45.899,33.592 C45.318,30.470 45.061,29.886 44.096,29.886 C43.775,29.886 29.223,34.372 26.455,35.151 C24.715,35.607 16.283,37.559 15.703,37.819 C15.252,38.014 13.706,39.899 13.255,39.899 C12.677,39.899 12.677,39.835 9.843,37.039 C9.071,36.257 8.170,32.486 8.170,31.836 C8.170,31.641 8.170,31.380 8.427,31.380 C8.750,31.380 10.036,31.900 10.294,31.967 C10.810,32.096 11.839,32.291 12.613,32.291 C15.316,32.291 16.604,31.445 20.080,25.074 C22.915,19.806 28.708,7.972 28.708,3.028 C28.708,2.704 28.579,1.143 28.579,0.883 C28.579,0.559 28.645,0.168 29.030,0.168 C29.480,0.168 35.404,4.525 35.404,6.801 C35.404,7.907 34.696,8.556 33.407,9.793 C32.378,10.768 24.975,22.473 23.365,24.814 C22.655,25.789 18.986,30.601 18.922,30.861 C18.858,31.512 19.179,31.900 19.759,31.900 C21.754,31.900 26.068,31.512 34.566,30.015 C44.032,28.390 44.032,28.065 44.032,27.283 C44.032,26.504 43.451,25.269 42.165,23.448 C41.649,22.602 40.683,21.172 40.683,20.977 C40.683,20.781 40.877,20.586 41.134,20.586 C43.001,20.586 52.724,28.585 52.724,34.958 C52.724,39.313 49.632,39.508 49.181,39.508 ZM53.302,165.468 C53.302,166.248 52.594,167.938 51.371,167.938 C50.406,167.938 49.826,167.354 48.089,164.882 C47.378,163.907 46.864,163.126 43.838,160.656 C43.581,160.461 42.937,159.941 42.937,159.681 C42.937,159.355 43.517,159.160 44.096,159.160 C49.054,159.160 53.302,162.737 53.302,165.468 ZM15.826,248.589 C15.591,248.589 15.533,248.470 15.300,248.234 L14.187,246.875 C13.953,246.579 13.953,246.579 13.953,246.460 C13.953,246.343 14.011,246.343 14.129,246.343 C14.538,246.343 16.353,246.520 16.704,246.520 C19.572,246.637 21.971,246.756 24.722,246.756 L31.335,246.756 C33.559,246.756 34.261,246.756 35.314,245.100 C36.485,243.386 36.836,243.031 37.305,243.031 C38.182,243.031 42.863,246.637 42.863,247.465 C42.863,248.293 41.694,248.293 39.762,248.293 L24.488,248.293 C19.337,248.293 17.639,248.412 17.055,248.470 C16.879,248.470 16.002,248.589 15.826,248.589 ZM17.173,254.322 C17.173,254.145 17.230,253.968 17.464,253.968 C17.815,253.968 20.507,255.859 21.151,256.155 C21.560,256.272 22.322,256.568 23.609,256.568 L32.446,256.568 C33.617,256.568 34.085,256.272 34.670,255.682 C35.607,254.618 35.725,254.499 36.192,254.499 C36.543,254.499 40.464,257.041 40.464,257.809 C40.464,258.163 38.884,259.464 38.766,259.938 C38.591,260.764 38.766,271.226 38.766,272.940 C38.766,273.650 38.766,275.896 36.134,275.896 C34.436,275.896 34.261,274.893 34.085,273.710 C33.968,272.763 32.915,272.763 32.388,272.763 L23.609,272.763 C21.971,272.763 21.971,273.295 21.971,276.310 C21.971,277.197 21.736,278.911 19.337,278.911 C17.230,278.911 17.230,277.433 17.230,276.784 C17.230,276.546 17.699,267.089 17.699,265.258 C17.699,263.012 17.639,259.287 17.464,256.687 C17.464,256.332 17.173,254.735 17.173,254.322 ZM21.853,269.099 C21.853,270.282 21.911,271.226 23.609,271.226 L32.681,271.226 C34.379,271.226 34.379,270.104 34.379,269.041 C34.379,267.975 34.494,261.652 34.494,261.237 C34.494,259.051 34.494,258.163 32.797,258.163 L23.493,258.163 C21.796,258.163 21.796,259.287 21.796,260.293 C21.796,261.711 21.853,267.858 21.853,269.099 ZM4.881,234.639 C4.881,234.462 4.881,234.106 5.174,234.106 C5.760,234.106 8.393,235.349 8.977,235.584 C9.973,235.997 11.028,236.293 12.256,236.293 L44.678,236.293 C45.849,236.293 46.258,235.997 47.077,235.052 C48.073,233.929 48.659,233.574 49.186,233.574 C50.179,233.574 53.164,237.002 53.164,237.889 C53.164,238.245 52.051,239.426 51.701,239.722 C51.525,239.959 51.525,244.214 51.525,246.343 C51.525,250.775 51.350,272.528 51.350,277.433 C51.350,281.216 51.350,283.226 50.590,284.408 C49.537,286.064 46.844,286.951 45.849,286.951 C45.673,286.951 45.205,286.951 44.854,286.419 C43.743,284.763 43.683,284.644 41.928,283.462 C41.284,283.049 36.778,281.749 36.778,281.038 C36.778,280.921 36.894,280.803 37.069,280.803 C37.247,280.803 39.235,281.099 39.646,281.157 C41.168,281.393 42.923,281.453 43.683,281.453 C45.380,281.453 46.082,281.334 46.493,280.980 C46.962,280.567 46.962,280.094 47.077,275.956 C47.313,265.612 47.371,250.184 47.371,239.780 C47.371,238.777 47.313,237.831 45.615,237.831 L11.143,237.831 C9.446,237.831 9.446,238.600 9.446,241.140 C9.446,245.100 9.153,264.665 9.153,269.099 C9.153,270.932 9.330,279.975 9.330,282.044 C9.330,283.167 9.330,286.773 6.345,286.773 C6.287,286.773 4.179,286.773 4.179,283.995 C4.179,282.871 4.705,271.758 4.765,269.867 C5.232,259.642 5.292,248.766 5.292,246.637 C5.292,243.092 5.232,240.963 5.056,237.121 C5.056,236.767 4.881,235.052 4.881,234.639 ZM36.499,166.184 C36.499,165.924 36.950,165.924 37.400,165.924 C41.778,165.924 44.032,169.759 44.032,171.385 C44.032,172.882 43.066,173.075 41.198,173.466 C39.718,173.792 33.924,176.717 32.699,177.237 C30.896,178.018 21.369,181.464 21.046,181.660 C20.274,182.180 20.274,182.504 20.274,184.975 C20.274,193.494 21.496,195.249 29.931,195.249 C32.636,195.249 35.210,194.989 39.331,194.078 C40.169,193.883 43.001,193.299 43.775,193.299 C45.127,193.299 46.349,194.338 46.349,195.575 C46.349,200.452 33.988,200.452 29.995,200.452 C16.668,200.452 16.347,194.664 16.347,185.431 C16.347,183.090 16.540,172.882 16.540,170.734 C16.540,165.402 15.575,162.997 14.865,161.631 C13.900,159.810 13.772,159.615 13.772,159.486 C13.772,159.095 14.673,158.900 15.252,158.900 C17.119,158.900 18.020,159.355 20.788,161.631 C21.239,161.955 21.883,162.737 21.883,163.321 C21.883,163.907 20.854,166.444 20.788,167.027 C20.531,169.304 20.403,175.091 20.403,177.823 C20.403,178.213 20.531,178.993 21.626,178.993 C22.915,178.993 36.950,172.100 36.950,168.589 C36.950,168.198 36.499,166.379 36.499,166.184 ZM6.403,319.531 C6.578,318.999 7.164,316.282 7.398,316.282 C7.809,316.282 8.160,317.522 8.626,318.763 C8.977,319.769 9.506,319.769 10.324,319.769 L24.839,319.769 C25.306,319.769 26.477,319.769 26.477,318.409 C26.477,317.819 26.301,316.459 26.185,315.393 C26.126,315.099 25.832,313.798 25.832,313.443 C25.832,312.970 26.126,312.853 26.652,312.853 C27.121,312.853 29.520,313.325 30.164,313.443 C31.160,313.620 31.626,313.739 31.626,314.330 C31.626,314.567 30.749,315.512 30.633,315.689 C30.222,316.282 30.222,317.403 30.222,317.996 C30.222,319.237 30.398,319.769 31.979,319.769 L45.322,319.769 C45.791,319.769 46.433,319.769 46.962,319.353 C47.195,319.176 48.130,317.819 48.424,317.819 C49.010,317.819 54.100,321.602 54.100,322.546 C54.100,323.728 52.638,323.906 52.287,323.906 C51.760,323.906 49.419,323.491 48.834,323.491 C47.428,323.491 46.726,323.670 45.089,324.734 C44.094,325.384 43.858,325.562 43.858,325.324 C43.858,325.265 45.791,322.546 45.791,321.895 C45.791,321.364 45.147,321.364 44.678,321.364 L35.783,321.364 C34.730,321.364 34.203,321.660 34.085,322.488 C34.028,322.724 34.028,325.856 34.028,326.388 C34.028,328.930 34.261,329.877 39.353,329.877 C40.581,329.877 43.976,329.877 45.029,329.699 C46.609,329.462 46.962,329.107 47.604,328.279 C47.955,327.808 49.477,324.557 49.477,324.557 C49.537,324.557 49.594,324.734 49.594,324.792 C49.652,325.088 49.888,326.625 50.003,326.980 C50.179,327.393 51.350,329.403 51.350,329.877 C51.350,333.482 42.805,333.482 40.699,333.482 C30.458,333.482 30.458,331.472 30.458,329.048 C30.458,328.221 30.573,324.141 30.573,323.255 C30.573,322.369 30.573,321.364 28.876,321.364 L22.322,321.364 C21.971,321.364 21.560,321.364 21.560,321.660 C21.560,321.895 21.736,321.956 23.318,322.724 C23.844,323.020 24.253,323.433 24.253,323.670 C24.253,324.025 22.615,324.970 22.322,325.205 C20.507,327.038 18.810,328.456 16.411,329.993 C9.564,334.369 2.248,335.609 2.072,335.609 C2.015,335.609 1.779,335.609 1.779,335.490 C1.779,335.255 3.008,334.604 3.419,334.369 C7.633,332.122 9.857,330.940 11.845,329.639 C17.990,325.501 18.694,322.488 18.694,322.073 C18.694,321.364 18.166,321.364 17.699,321.364 L10.559,321.364 C9.621,321.364 9.213,321.483 9.037,322.782 C8.802,324.557 8.335,328.340 4.765,328.340 C3.419,328.340 2.541,327.512 2.541,326.448 C2.541,325.797 2.775,325.147 3.712,324.025 C5.232,322.192 5.760,321.541 6.403,319.531 ZM52.345,359.725 C52.345,362.148 50.823,363.569 49.537,363.569 C48.248,363.569 48.130,363.095 47.077,358.426 C46.200,354.583 44.796,352.336 43.683,350.800 C43.507,350.505 43.392,350.268 43.450,350.209 C43.683,349.972 46.375,351.865 46.726,352.101 C52.169,355.884 52.345,357.953 52.345,359.725 ZM29.462,353.283 C28.700,350.741 27.239,348.731 26.301,347.548 C26.126,347.371 26.010,347.194 26.126,347.077 C26.419,346.662 33.735,348.969 33.735,353.164 C33.735,354.821 32.564,355.884 31.626,355.884 C30.222,355.884 29.813,354.466 29.462,353.283 ZM16.879,349.440 C16.879,349.323 16.879,349.027 16.997,348.908 C17.113,348.791 17.230,348.791 17.406,348.791 C17.875,348.791 22.205,350.683 22.205,351.392 C22.205,351.686 21.151,352.752 21.034,352.987 C20.683,353.577 20.743,354.228 20.743,355.233 C20.743,361.085 20.743,361.381 27.881,361.381 C36.134,361.381 36.603,360.611 37.538,358.958 C37.889,358.307 39.118,354.643 39.353,354.643 C39.528,354.643 39.586,355.292 39.646,355.648 C39.997,358.780 40.288,359.135 40.992,359.902 C41.694,360.730 41.985,361.027 41.985,361.559 C41.985,364.632 32.622,364.868 29.756,364.868 C20.683,364.868 19.512,364.159 18.634,363.391 C17.230,362.209 17.230,361.736 17.230,357.006 C17.230,356.770 17.288,352.397 17.113,351.096 C17.055,350.800 16.879,349.678 16.879,349.440 ZM9.446,351.332 C9.857,351.332 10.148,354.111 10.148,355.114 C10.148,358.130 8.744,363.095 5.525,363.095 C3.828,363.095 3.359,361.971 3.359,361.085 C3.359,360.140 3.536,359.963 5.292,358.249 C5.760,357.776 7.164,356.357 9.095,351.865 C9.153,351.686 9.330,351.332 9.446,351.332 ZM36.894,336.319 C37.011,336.319 48.541,339.747 48.541,345.598 C48.541,346.662 47.897,347.903 46.844,347.903 C46.082,347.903 46.082,347.845 44.385,345.302 C43.392,343.765 42.337,342.170 41.284,342.170 C41.226,342.170 11.261,346.604 10.617,346.839 C10.324,346.958 8.977,347.667 8.626,347.667 C7.515,347.667 6.287,342.347 6.287,342.051 C6.287,341.816 6.520,341.816 6.696,341.816 C6.989,341.816 8.335,342.051 8.686,342.112 C10.032,342.289 11.261,342.289 12.665,342.289 C14.831,342.289 15.533,342.289 16.293,341.520 C17.055,340.694 20.390,336.200 21.971,332.535 C22.205,331.945 23.142,328.930 23.433,328.930 C23.609,328.930 28.292,331.885 28.292,332.713 C28.292,333.067 27.941,333.305 27.765,333.422 C27.530,333.599 26.243,334.072 25.950,334.250 C25.599,334.485 17.699,341.342 17.699,341.757 C17.699,342.112 18.226,342.112 18.928,342.112 C22.731,342.112 34.494,341.638 38.300,341.284 C40.406,341.107 40.639,341.048 40.639,340.694 C40.639,339.924 36.660,336.615 36.660,336.438 C36.660,336.319 36.836,336.319 36.894,336.319 ZM10.850,409.389 C20.858,400.760 24.546,393.726 24.839,392.424 C25.306,390.593 25.306,390.356 26.010,390.356 C26.068,390.356 31.511,392.956 31.511,393.961 C31.511,394.258 31.393,394.316 30.808,394.731 C30.458,394.908 30.398,395.085 30.398,395.321 C30.398,397.154 40.757,410.276 54.628,414.236 C56.266,414.709 56.266,414.709 56.266,415.003 C56.266,415.360 56.090,415.418 54.628,415.892 C53.867,416.127 51.760,416.836 50.883,418.315 C50.647,418.728 50.472,418.905 50.121,418.905 C48.834,418.905 36.367,410.217 29.756,398.040 C29.111,396.800 28.994,396.622 28.760,396.622 C28.525,396.622 27.590,397.803 27.121,398.395 C16.762,411.516 3.594,416.955 1.486,417.368 C1.311,417.429 0.960,417.487 0.960,417.191 C0.960,416.955 1.135,416.836 1.839,416.363 C2.248,416.069 7.047,412.640 10.850,409.389 ZM23.200,415.831 C19.630,415.831 17.932,415.831 15.766,416.008 C15.591,416.008 14.713,416.127 14.538,416.127 C14.362,416.127 14.245,416.008 14.011,415.773 L12.898,414.413 C12.665,414.177 12.665,414.117 12.665,414.000 C12.665,413.940 12.723,413.881 12.841,413.881 C13.252,413.881 15.064,414.059 15.415,414.059 C18.283,414.236 21.094,414.295 23.433,414.295 L29.227,414.295 C32.095,414.295 32.213,414.177 33.384,412.758 C34.319,411.635 35.021,410.749 35.314,410.749 C35.841,410.749 39.762,414.532 39.762,415.183 C39.762,415.831 39.471,415.831 36.660,415.831 L23.200,415.831 ZM9.330,423.516 C12.196,423.635 15.300,423.752 17.348,423.752 L36.660,423.752 C39.118,423.752 39.762,423.752 41.168,421.802 C42.045,420.561 42.279,420.206 42.805,420.206 C43.274,420.206 43.450,420.323 44.796,421.447 C47.779,423.929 47.779,423.990 47.779,424.521 C47.779,425.289 47.488,425.289 44.738,425.289 L26.828,425.289 C26.243,425.289 26.010,425.289 26.010,425.466 C26.010,425.466 28.760,427.831 28.760,428.481 C28.760,429.013 28.760,429.013 27.003,429.486 C26.537,429.664 26.419,429.841 24.955,431.791 C23.726,433.447 21.327,436.343 20.976,436.698 C20.743,436.992 20.156,437.584 20.156,438.116 C20.156,438.648 20.976,438.706 21.209,438.706 C21.971,438.706 27.472,438.352 33.968,437.701 C38.182,437.288 38.651,437.230 38.651,436.637 C38.651,435.751 35.196,432.738 35.196,432.029 C35.196,431.733 35.432,431.672 35.607,431.672 C36.485,431.672 42.279,434.923 43.041,435.338 C44.620,436.283 48.248,438.412 48.248,442.135 C48.248,444.026 47.077,445.328 45.966,445.328 C44.269,445.328 43.041,443.140 41.985,441.190 C40.875,439.180 40.348,439.003 39.528,439.003 C36.836,439.003 14.362,443.555 12.372,444.441 C12.081,444.558 10.968,445.386 10.675,445.386 C10.499,445.386 10.208,445.267 10.090,444.973 C8.919,442.904 6.871,439.238 6.871,438.706 C6.871,438.293 7.164,438.293 7.340,438.293 C7.749,438.293 9.564,438.648 9.915,438.706 C10.734,438.825 12.372,438.944 13.367,438.944 C16.644,438.944 17.055,438.944 19.454,434.098 C20.858,431.259 22.498,427.003 22.498,426.294 C22.498,425.289 21.736,425.289 20.743,425.289 L17.055,425.289 C12.723,425.289 11.261,425.349 9.681,425.466 C9.506,425.466 8.626,425.585 8.451,425.585 C8.217,425.585 8.160,425.466 7.924,425.230 L6.813,423.871 C6.696,423.693 6.520,423.516 6.520,423.458 C6.520,423.339 6.638,423.339 6.753,423.339 C7.164,423.339 8.977,423.516 9.330,423.516 Z"/>
</svg>